<svg width="48" height="51" fill="none" xmlns="http://www.w3.org/2000/svg"><g clip-path="url(#clip0_2959_13483)"><path fill-rule="evenodd" clip-rule="evenodd" d="M47.641 11.758a.765.765 0 01.027.199V22.4a.756.756 0 01-.386.661l-8.84 5.047v10.004a.762.762 0 01-.385.66L19.603 49.307a.79.79 0 01-.134.056c-.018.005-.034.016-.052.02a.779.779 0 01-.394 0c-.02-.005-.04-.017-.06-.024-.042-.015-.087-.029-.127-.052L.386 38.773a.766.766 0 01-.386-.66V6.779a.79.79 0 01.027-.2c.006-.021.02-.041.027-.063.014-.04.028-.081.049-.118.014-.025.035-.045.053-.068.022-.03.042-.062.068-.088.022-.022.05-.039.076-.058.027-.022.052-.047.084-.065h.001L9.611.852a.775.775 0 01.768 0l9.225 5.267h.002c.03.019.057.043.085.064.024.02.052.037.074.058.027.027.046.059.07.09.016.022.038.042.051.067.023.038.035.078.05.118.008.022.021.042.027.064a.764.764 0 01.027.2v19.57l7.688-4.39V11.957c0-.067.01-.134.027-.198.006-.023.019-.043.027-.065.015-.04.028-.08.05-.118.014-.025.035-.045.051-.067.023-.03.043-.062.07-.089.021-.022.05-.038.074-.057.03-.023.054-.048.085-.066L37.29 6.03a.774.774 0 01.768 0l9.226 5.267c.032.02.057.043.086.065.024.019.052.036.074.057.027.028.046.06.07.09.017.022.038.042.051.067.022.037.035.078.05.118.009.022.021.042.027.065zM46.13 21.96v-8.686l-3.23 1.844-4.46 2.547v8.685l7.69-4.39h-.001zm-9.226 15.711v-8.69l-4.387 2.484-12.528 7.09v8.772l16.915-9.656zM1.538 8.098v29.574l16.913 9.656v-8.772l-8.836-4.958-.003-.002-.003-.002c-.03-.017-.055-.042-.083-.063-.024-.019-.052-.034-.073-.055l-.002-.003c-.025-.024-.042-.053-.063-.08-.02-.026-.042-.047-.058-.074v-.003c-.018-.028-.029-.063-.041-.095-.013-.029-.029-.055-.037-.086-.01-.037-.011-.075-.015-.112-.004-.029-.011-.057-.011-.086v-20.45L4.766 9.94 1.538 8.099v-.001zm8.458-5.706L2.309 6.779l7.685 4.388 7.685-4.389-7.685-4.386h.002zm3.997 27.381l4.46-2.545V8.098l-3.23 1.843-4.46 2.546v19.13l3.23-1.844zM37.673 7.57l-7.686 4.388 7.686 4.387 7.685-4.388-7.685-4.387zm-.769 10.096l-4.46-2.547-3.228-1.843v8.686l4.459 2.545 3.23 1.844v-8.685zM19.22 37.237l11.273-6.382 5.636-3.189-7.68-4.384-8.843 5.048-8.06 4.6 7.674 4.307z" fill="#FF2D20"/></g><defs><clipPath id="clip0_2959_13483"><path fill="#fff" transform="translate(0 .75)" d="M0 0h48v49.5H0z"/></clipPath></defs></svg>