<svg width="34" height="15" fill="none" xmlns="http://www.w3.org/2000/svg"><path d="M6.83 11.595l.736 3.255h.966L5.256.13H3.849L.636 14.85h.882l.735-3.255H6.83zM4.52 1.242l2.164 9.513H2.4l2.12-9.513zM13.1.024c-2.247 0-3.17 1.596-3.17 3.717v7.518c0 2.121.923 3.717 3.17 3.717s3.171-1.596 3.171-3.717V7.27h-2.877v.882h1.953v3.171c0 1.575-.609 2.751-2.226 2.751s-2.226-1.176-2.226-2.75V3.677c0-1.575.61-2.772 2.226-2.772 1.617 0 2.226 1.197 2.226 2.772v1.155h.924V3.741c0-2.12-.924-3.717-3.17-3.717zm4.788.126v14.7h.966V.15h-.966zm8.232 14.7v-.882H21.5V.15h-.967v14.7h5.586zm2.413-7.896V1.032h4.83V.15h-5.796v14.7h5.796v-.882h-4.83V7.836h4.011v-.882h-4.01z" fill="#000"/></svg>