<svg width="44" height="43" fill="none" xmlns="http://www.w3.org/2000/svg"><g clip-path="url(#clip0_2828_12373)"><path d="M7.872.5h28.256c4.283 0 7.747 3.41 7.747 7.628v26.744c0 4.218-3.464 7.628-7.747 7.628H7.872C3.59 42.5.125 39.09.125 34.872V8.128C.125 3.91 3.589.5 7.872.5z" fill="#300"/><path d="M21.272 25.627H14.49l-1.386 4.218a.318.318 0 01-.346.252H9.332c-.2 0-.255-.108-.2-.324l5.87-16.638c.054-.18.108-.377.181-.592.073-.377.11-.772.11-1.167-.018-.09.054-.18.146-.197h4.72c.147 0 .22.053.238.143L27.05 29.81c.054.198 0 .287-.183.287h-3.81a.275.275 0 01-.291-.197l-1.495-4.272zm-5.724-3.643h4.63c-.11-.377-.255-.826-.42-1.293a53.508 53.508 0 01-.491-1.543c-.183-.557-.347-1.095-.529-1.651a38.298 38.298 0 01-.492-1.598c-.146-.502-.274-.97-.401-1.4h-.037a21.777 21.777 0 01-.62 2.315c-.273.862-.546 1.76-.838 2.657a34.87 34.87 0 01-.802 2.513zm15.568-7.664a2.275 2.275 0 01-1.623-.629 2.31 2.31 0 01-.62-1.65 2.095 2.095 0 01.657-1.598 2.354 2.354 0 011.622-.629c.711 0 1.258.216 1.659.629.401.43.62 1.005.602 1.597a2.253 2.253 0 01-.638 1.651c-.42.431-1.04.664-1.66.629zM29.074 29.9V16.078c0-.18.073-.252.237-.252h3.61c.163 0 .236.09.236.252v13.82c0 .197-.073.287-.237.287h-3.573c-.182 0-.273-.107-.273-.287z" fill="#FF9A00"/></g><defs><clipPath id="clip0_2828_12373"><path fill="#fff" transform="translate(.125 .5)" d="M0 0h43.75v42H0z"/></clipPath></defs></svg>