<svg width="42" height="57" fill="none" xmlns="http://www.w3.org/2000/svg"><g clip-path="url(#clip0_2959_13517)"><path fill-rule="evenodd" clip-rule="evenodd" d="M41.283 27.481c0 11.288-9.1 20.439-20.326 20.439S.631 38.77.631 27.48c0-11.288 9.1-20.439 20.326-20.439s20.326 9.151 20.326 20.44z" fill="#D33833"/><path d="M1.46 32.543S-.013 11.229 19.965 10.62l-1.394-2.284-10.84 3.578-3.098 3.502-2.71 5.1-1.549 5.937.465 3.959" fill="#EF3D3A"/><path d="M7.036 13.537a19.816 19.816 0 00-5.773 14.02 19.814 19.814 0 005.773 14.017c3.568 3.587 8.485 5.8 13.921 5.8 5.437 0 10.354-2.213 13.922-5.8a19.815 19.815 0 005.773-14.018 19.817 19.817 0 00-5.773-14.019c-3.568-3.586-8.485-5.799-13.922-5.8-5.436.001-10.353 2.214-13.921 5.8zm-.903 28.905A21.048 21.048 0 010 27.556c0-5.81 2.343-11.075 6.133-14.886s9.035-6.174 14.824-6.173c5.79 0 11.036 2.362 14.825 6.173a21.046 21.046 0 016.133 14.886 21.045 21.045 0 01-6.133 14.886 20.845 20.845 0 01-14.825 6.173c-5.79 0-11.034-2.362-14.824-6.173z" fill="#231F20"/><path fill-rule="evenodd" clip-rule="evenodd" d="M29.514 27.595l-3.097.456-4.182.457-2.71.076-2.633-.076-2.013-.61-1.78-1.902-1.395-3.882-.31-.838-1.858-.608-1.084-1.751-.774-2.512.852-2.208 2.013-.685 1.626.761.774 1.675.93-.152.31-.38-.31-1.752-.078-2.207.465-3.045-.019-1.74 1.412-2.218 2.478-1.751L22.468.876l4.8.685L31.45 4.53l1.936 3.044 1.239 2.208.31 5.48-.93 4.72-1.703 4.187-1.626 2.208" fill="#F0D6B7"/><path fill-rule="evenodd" clip-rule="evenodd" d="M26.881 40.762l-11.073.456v1.827l.93 6.395-.465.533-7.744-2.589-.542-.913-.774-8.602-1.78-5.176-.388-1.218 6.194-4.187 1.936-.76 1.704 2.054 1.471 1.294 1.704.533.774.229.93 3.958.696.837 1.781-.609-1.239 2.36 6.737 3.121-.852.457z" fill="#335061"/><path fill-rule="evenodd" clip-rule="evenodd" d="M8.529 14.196l2.013-.685 1.626.762.774 1.674.93-.152.232-.913-.465-1.751.465-4.187-.387-2.284 1.393-1.598 3.02-2.36-.851-1.142-4.26 2.056-1.78 1.37-1.007 2.131-1.549 2.055-.464 2.436.31 2.588z" fill="#6D6B6D"/><path fill-rule="evenodd" clip-rule="evenodd" d="M11.704 7.041s1.161-2.816 5.807-4.187c4.646-1.37.233-.99.233-.99L12.71 3.769 10.774 5.67l-.851 1.522 1.78-.152zM9.38 13.662s-1.626-5.328 4.569-6.09l-.232-.913-4.26.99-1.238 3.958.31 2.588.851-.533z" fill="#DCD9D8"/><path fill-rule="evenodd" clip-rule="evenodd" d="M11.86 20.743l1.013-.966s.458.052.535.585c.078.533.31 5.329 3.64 7.917.303.236-2.478-.38-2.478-.38l-2.478-3.807m14.015-4.795s.18-2.308.813-2.13c.632.177.632.799.632.799s-1.535.976-1.445 1.33z" fill="#F7E4CD"/><path d="M32.534 10.847s-1.276.265-1.394 1.37c-.117 1.106 1.394.229 1.626.153m-9.602-1.446s-1.704.228-1.704 1.294 1.936.99 2.478.533" fill="#F7E4CD"/><path fill-rule="evenodd" clip-rule="evenodd" d="M12.633 15.872s-2.943-1.75-3.253-.076c-.31 1.675-1.006 2.893.465 4.643l-1.007-.304-.929-2.36-.31-2.283 1.781-1.828 2.014.153 1.161.913.078 1.142zm1.394-4.796s1.316-6.698 7.976-7.993c5.482-1.065 8.362.229 9.447 1.447 0 0-4.879-5.71-9.525-3.959-4.646 1.751-8.053 4.948-7.976 7.003.132 3.5.078 3.502.078 3.502zM31.992 5.29s-2.245-.076-2.323 1.903c0 0 0 .304.155.609 0 0 1.78-1.98 2.865-.914" fill="#F7E4CD"/><path fill-rule="evenodd" clip-rule="evenodd" d="M22.16 8.008s-.387-3.038-3.022-1.272c-1.703 1.142-1.548 2.74-1.239 3.045.31.305.226.918.462.497.235-.42.158-1.791 1.01-2.172.851-.38 2.248-.805 2.789-.098z" fill="#F7E4CD"/><path fill-rule="evenodd" clip-rule="evenodd" d="M14.879 28.584L7.6 31.782s3.02 11.799 1.471 15.452l-1.084-.38-.077-4.491-2.013-8.526-.852-2.36 7.588-5.024 2.246 2.131zm.749 6.526l1.032 1.239v4.567h-1.239s-.154-3.197-.154-3.578c0-.38.154-1.75.154-1.75m.231 6.012l-3.484.153 1.007.685 2.477.38" fill="#49728B"/><path fill-rule="evenodd" clip-rule="evenodd" d="M27.578 40.839l2.865-.076.697 7.003-2.943.38-.619-7.307z" fill="#335061"/><path fill-rule="evenodd" clip-rule="evenodd" d="M28.352 40.838l4.336-.229s1.78-4.415 1.78-4.643c0-.228 1.55-6.394 1.55-6.394l-3.485-3.578-.697-.609-1.858 1.827v7.08l-1.626 6.546z" fill="#335061"/><path fill-rule="evenodd" clip-rule="evenodd" d="M30.288 40.307l-2.71.533.387 2.132c1.007.456 2.71-.762 2.71-.762m-.309-15.225l5.42 3.958.155-1.827-4.104-3.73-1.47 1.6z" fill="#49728B"/><path fill-rule="evenodd" clip-rule="evenodd" d="M18.341 55.837l-1.603-6.396-.798-4.718-.131-3.503 7.255-.38h4.515l-.41 7.993.696 6.166-.077 1.142-5.885.457-3.562-.761z" fill="#fff"/><path fill-rule="evenodd" clip-rule="evenodd" d="M26.571 40.764s-.387 7.917.774 13.55c0 0-2.322 1.446-5.73 1.827l6.505-.229.774-.456-.93-12.484-.231-2.665" fill="#DCD9D8"/><path fill-rule="evenodd" clip-rule="evenodd" d="M31.271 47.158l3.02-.837 5.73-.305.852-2.588-1.549-4.491-1.78-.228-2.479.76-2.377 1.142-1.262-.228-.984.38" fill="#fff"/><path fill-rule="evenodd" clip-rule="evenodd" d="M31.217 45.636s2.013-.914 2.323-.837l-.852-4.187 1.007-.38s.697 3.958.697 4.414c0 0 4.336.229 4.723.229 0 0 .93-1.751.697-3.578l.852 2.436.077 1.37-1.239 1.827-1.394.304-2.322-.076-.775-.99-2.71.381-.852.305" fill="#DCD9D8"/><path d="M28.174 40.23l-1.703-4.262-1.782-2.513s.387-1.065.93-1.065h1.78l1.704.609-.155 2.816-.774 4.416z" fill="#fff"/><path fill-rule="evenodd" clip-rule="evenodd" d="M28.508 38.784s-2.169-4.11-2.169-4.72c0 0 .387-.913.93-.685.542.228 1.703.837 1.703.837V32.77l-2.633-.533-1.78.228 3.02 7.004.619.076" fill="#DCD9D8"/><path d="M19.038 28.736l-2.146-.23-2.013-.608v.685l.984 1.066 3.097 1.37" fill="#fff"/><path fill-rule="evenodd" clip-rule="evenodd" d="M15.576 28.965s2.4.99 3.175.761l.077.913-2.168-.456-1.316-.914.232-.304z" fill="#DCD9D8"/><path fill-rule="evenodd" clip-rule="evenodd" d="M31.264 32.65c-1.314-.038-2.501-.191-3.54-.48.07-.418-.062-.83.044-1.13.29-.206.775-.203 1.213-.25a2.144 2.144 0 00-1.348-.15c-.01-.291-.142-.471-.223-.699.739-.259 2.483-1.958 3.464-1.395.467.267.666 1.796.702 2.54.03.616-.057 1.238-.312 1.564z" fill="#D33833"/><path fill-rule="evenodd" clip-rule="evenodd" d="M32.157 34.552l.584-.746c.394-.504.555-1.08.63-1.493a4.67 4.67 0 00.022-.123l2.28-.25-2.231-1.079a11.157 11.157 0 00-.224-1.63 5.615 5.615 0 00-.326-1.037c-.12-.273-.424-.896-1.085-1.275m-5.994 5.304l-.22 1.303 1.63.451c1.222.34 2.566.507 3.987.547l.947.028m-6.344-2.329l-.047-1.353a4 4 0 01-.123-.304l-.626-1.772 1.742-.611h-.002c-.001-.003.088-.05.334-.212l.16-.107c.235-.157.54-.361.843-.54.373-.223.88-.494 1.442-.645.56-.15 1.424-.246 2.27.24m-6.826 3.618l-.01.295c-.411.265-1.073.262-1.524.485a4.012 4.012 0 011.638.407l-.029.738c-.752.506-1.439 1.26-2.324 1.734-.419.225-1.888.802-2.333.7-.252-.057-.275-.365-.375-.654-.215-.62-.71-1.609-.752-2.543-.055-1.18-.176-3.157 1.117-2.914 1.043.196 2.257.669 3.065 1.102.493.266.779.594 1.528.65z" fill="#D33833"/><path fill-rule="evenodd" clip-rule="evenodd" d="M23.617 35.849c-.335.179-.913.418-1.445.597zm-1.445.597c-.276.092-.59.186-.896.25zm-.896.25c-.212.045-.747.153-1.295.028zm-1.297.028c-.992-.228-1.41-.993-1.558-1.351a3.689 3.689 0 01-.133-.392l-.002-.006-.011-.04-.015-.052a1.052 1.052 0 00-.008-.026l-.001-.003c-.037-.106-.09-.239-.173-.449a18.92 18.92 0 01-.264-.693c-.177-.502-.382-1.186-.416-1.926m4.047.933l-.095-.255c-.134-.381-.197-.658-.206-.851v-.001l-.003-.072c-.01-.213-.02-.418-.024-.62.53.18 1.052.406 1.448.619l.016.01c.04.03.154.112.326.215l-.158.131c-.361.299-.635.504-.904.648l-.007.004-.02.01a6.541 6.541 0 01-.373.162zm2.619-3.521l-.004.001a.044.044 0 00.004-.001zm.98.5l.078-1.03a.555.555 0 01-.077-.012l-.006-.002a3.481 3.481 0 01-.235-.141l-.008-.005a6.858 6.858 0 00-.456-.272c-.946-.509-2.341-1.056-3.606-1.294m4.31 2.755c.308.094.596.21.866.343l1.098.538-.05 1.221-.02.492-.01.245-.037.95-.789.531c-.216.146-.417.314-.706.554l-.259.215c-.39.323-.903.732-1.52 1.062m-3.575-5.22zm1.137-.614l-.006.018a.096.096 0 00.006-.018zm-3.781 1.771l-.006-.115zm-.006-.115c-.026-.537-.074-1.508.095-2.336zm.095-2.336c.09-.443.293-1.134.848-1.688zm.848-1.688c.668-.668 1.557-.862 2.399-.704z" fill="#D33833"/><path fill-rule="evenodd" clip-rule="evenodd" d="M25.728 31.946c-.115-.643-.248-.826-.196-1.387 1.743-1.143 2.07 1.963.196 1.387z" fill="#D33833"/><path fill-rule="evenodd" clip-rule="evenodd" d="M27.39 28.692c-1.047-.516-2.118-.205-2.886.298l-.757.496-.082.902c-.045.486-.007.86.067 1.217.022.104.051.223.071.307l.015.06c.023.097.044.19.064.303l.201 1.126 1.094.336c.926.285 2.014.213 2.837-.556.736-.689.92-1.63.835-2.359-.084-.723-.49-1.652-1.459-2.13zm-1.434 2.513l-.228.74.638-.114.192.292c-.08.033-.4.142-.825-.067a1.545 1.545 0 01-.148-.085 1.032 1.032 0 01-.46-.715.949.949 0 01.231-.713c.03-.035.061-.069.097-.102l.001-.001c.389-.363.79-.293.823-.287a.01.01 0 01.002 0l-.142.461-.605-.056.424.647z" fill="#D33833"/><path fill-rule="evenodd" clip-rule="evenodd" d="M28.251 32.467s-.542-.762-.155-.99c.387-.228.775 0 1.007-.38.232-.381 0-.61.077-1.066.078-.457.465-.533.852-.61.387-.075 1.472-.228 1.626.153l-.464-1.37-.93-.305-2.942 1.675-.155.837v1.675m-7.046 2.892a255.821 255.821 0 00-.3-3.56c-.165-1.773.432-1.463 1.995-1.463.239 0 1.47.28 1.558.456.422.848-.707.66.486 1.3 1.007.539 2.785-.329 2.379-1.528-.228-.267-1.187-.083-1.53-.259L22.894 29c-.77-.393-2.548-.965-3.369-.417-2.08 1.39.131 4.864.873 6.314" fill="#EF3D3A"/><path fill-rule="evenodd" clip-rule="evenodd" d="M22.158 8.01c-2.11-.484-3.159.868-3.799 2.27-.57-.137-.344-.9-.2-1.29.379-1.02 1.901-2.38 3.145-2.196.535.08 1.26.56.854 1.215zm10.285 2.36l.1.004c.477.974.89 2.006 1.491 2.866-.403.923-3.052 1.74-3.011.082.573-.246 1.562-.05 2.07-.364-.294-.793-.718-1.467-.65-2.588zm-9.203.027c.453.815.6 1.672 1.244 2.288.29.278.853.616.573 1.388-.065.182-.542.588-.817.667-1.006.292-3.349.06-2.555-1.172.831.038 1.95.531 2.57-.063-.477-.75-1.328-2.234-1.014-3.108zm8.825 8.288c-1.514.956-3.203 1.995-5.684 1.754-.53-.453-.732-1.461-.217-2.127.268.453.1 1.287.847 1.412 1.407.237 3.046-.847 4.059-1.225.627-1.041-.055-1.424-.62-2.093-1.158-1.373-2.712-3.074-2.655-5.128.468-.334.508.51.575.663.605 1.39 2.127 3.17 3.238 4.36.272.294.721.575.771.77.144.563-.374 1.239-.314 1.614zm-19.962-1.007c-.474-.266-.587-1.44-1.145-1.473-.796-.047-.65 1.522-.648 2.44-.548-.49-.644-1.996-.241-2.77-.46-.22-.664.245-.919.41.328-2.337 3.477-1.084 2.953 1.393zm20.926 1.979c-.705 1.32-1.702 2.771-3.77 2.814-.042-.426-.075-1.074.002-1.33 1.581-.15 2.557-.941 3.768-1.484zm-9.909.856c1.318.682 3.742.755 5.535.703.097.386.094.863.098 1.334-2.305.113-5.03-.447-5.634-2.037zm-.25 1.271c.912 2.251 4.047 1.992 6.69 1.93-.116.292-.368.637-.681.762-.848.34-3.184.596-4.36-.018-.746-.39-1.226-1.27-1.634-1.787-.198-.25-1.18-.886-.015-.887z" fill="#231F20"/><path fill-rule="evenodd" clip-rule="evenodd" d="M31.954 34.204c-1.07 1.802-2.094 3.654-3.364 5.243.532-1.539.76-4.114.84-6.078 1.114-.513 2.068.115 2.524.835z" fill="#81B0C4"/><path fill-rule="evenodd" clip-rule="evenodd" d="M37.714 40.68c-1.199.236-2.04 1.381-3.21 1.308.643-.89 1.768-1.266 3.21-1.308zm.53 1.845c-.977.101-2.124.257-3.115.177.469-.705 2.276-.462 3.115-.177zm.338 1.589c-1.098.024-2.462.002-3.506-.084.617-.652 2.794-.242 3.506.084z" fill="#231F20"/><path fill-rule="evenodd" clip-rule="evenodd" d="M29.889 48.465c.157 1.355.704 2.728.636 4.212-.607.202-.956.378-1.77.377-.057-1.262-.229-3.19-.177-4.393.4.026.99-.28 1.31-.197z" fill="#DCD9D8"/><path fill-rule="evenodd" clip-rule="evenodd" d="M28.119 28.489c-.551.354-1.02.795-1.55 1.173-1.174.057-1.815-.08-2.677-.742.014-.054.1-.03.104-.095 1.256.55 2.854-.224 4.123-.336z" fill="#F0D6B7"/><path fill-rule="evenodd" clip-rule="evenodd" d="M21.521 36.91c.346-1.47 1.699-2.232 2.927-3.042 1.268 1.582 2.04 3.617 2.889 5.58-2.007-.594-4.057-1.56-5.816-2.537z" fill="#81B0C4"/><path fill-rule="evenodd" clip-rule="evenodd" d="M28.578 48.661c-.052 1.203.12 3.131.177 4.393.814 0 1.162-.175 1.77-.377.068-1.484-.479-2.857-.636-4.213-.322-.084-.911.223-1.311.197zm-12.664-6.84c.536 4.847 1.313 8.922 2.737 13.213 3.163.944 6.974 1.026 9.769.175-.513-2.423-.289-5.372-.589-7.957-.226-1.943-.11-3.897-.42-5.88-3.387-.692-8.174-.161-11.497.45zm12.297-.418c-.028 2.081.095 4.135.257 6.219.813-.12 1.364-.2 2.12-.363-.245-2.007-.215-4.264-.715-6.04-.577.006-1.086-.006-1.662.184zm4.125-.336c-.386-.087-.835-.003-1.204.004.173 1.697.594 3.57.742 5.35.58.018.89-.251 1.367-.341.025-1.564-.14-3.718-.905-5.013zm6.245 5.61c1.209-.289 1.97-1.745 1.631-3.24-.227-1.005-.631-2.897-1.064-3.54-.32-.475-1.186-1.097-1.878-.662-1.126.709-3.109.915-3.93 1.772.412 1.348.54 3.198.71 4.906 1.406.086 3.136-.38 4.306.114-.817.26-1.876.262-2.582.641.577.274 1.927.219 2.807.009zm-11.244-7.229c-.85-1.964-1.62-3.998-2.889-5.58-1.229.81-2.581 1.572-2.927 3.042 1.759.979 3.81 1.943 5.816 2.538zm2.093-6.08c-.08 1.963-.308 4.54-.84 6.078 1.27-1.59 2.294-3.44 3.364-5.243-.456-.72-1.41-1.348-2.524-.835zm-2.373-.83c-.481-.05-.89.545-1.515.287-.143.156-.274.325-.42.477 1.382 1.637 2.01 3.96 3.077 5.883.573-1.848.507-3.872.633-5.89-.787.05-1.223-.699-1.775-.756zm-1.526-1.98c-.051.561.081.745.196 1.387 1.875.577 1.548-2.529-.196-1.386zm-2.079-.67c-.808-.434-2.021-.906-3.064-1.102-1.294-.243-1.173 1.734-1.118 2.914.044.934.538 1.921.752 2.542.1.29.124.597.376.655.445.102 1.914-.476 2.333-.7.885-.475 1.572-1.228 2.324-1.734l.03-.739a4.009 4.009 0 00-1.639-.407c.45-.223 1.112-.22 1.523-.484l.011-.295c-.749-.057-1.034-.385-1.528-.65zm-7.715-1.378c-.67.67 1.88 1.581 2.692 1.63-.004-.423.246-.822.195-1.126-.964-.166-2.232-.056-2.887-.504zm8.258.314c-.003.066-.09.042-.104.095.863.663 1.504.8 2.678.743.529-.378.998-.82 1.55-1.173-1.27.111-2.867.886-4.124.335zm7.58 2.26c-.035-.743-.234-2.272-.701-2.54-.981-.562-2.725 1.137-3.464 1.396.08.228.213.408.223.699a2.144 2.144 0 011.348.15c-.438.047-.924.044-1.213.25-.106.3.026.712-.045 1.13 1.04.289 2.227.443 3.54.48.256-.326.343-.948.313-1.565zm-16.967-1.927c-.21-.147-1.635-1.969-1.83-1.893-2.577.999-4.987 2.727-7.14 4.36 2.053 4.331 2.882 9.637 3.028 14.751 2.352 1.081 4.418 2.64 7.61 2.803-.37-2.569-.707-4.86-.917-7.279-.802-.332-1.952.015-2.702-.103-.007-.889 1.146-.389 1.242-.987.072-.452-.634-.486-.404-1.198.586.21.894.672 1.52.846.572-1.23-.008-3.405.074-4.432.016-.193.098-1.07.538-.916.39.136-.022 2.33.02 3.303.04.896-.11 1.763.26 2.325a89.6 89.6 0 019.554-.769c-.734-.31-1.606-.603-2.562-1.132-.519-.288-2.152-.885-2.302-1.37-.239-.77.626-1.181.774-1.842-1.557.834-1.86-.8-2.229-1.958-.333-1.05-.523-1.833-.605-2.438-1.341-.628-2.775-1.265-3.929-2.07zm15.606-1.673c2.147-1.023 2.534 3.825 1.692 5.388.13.465.578.644.76 1.063-1.198 2.11-2.529 4.08-3.751 6.165.91-.557 2.208-.1 3.279-.517.39-.152.674-1.032.97-1.736.815-1.938 1.67-4.38 2.05-6.23.087-.421.32-1.34.268-1.714-.093-.672-1.02-1.17-1.491-1.585-.869-.766-1.416-1.441-2.321-2.158-.368.533-1.156.89-1.456 1.324zM9.698 8.766c-1.024 1.106-.81 3.18-.686 4.655 1.85-1.144 4.304.09 4.281 2.036.883-.023.33-1.084.17-1.768-.522-2.232.88-4.658.064-6.7-1.584.119-2.885.755-3.83 1.777zm7.32-6.423c-2.316.645-5.285 2.3-6.236 4.345.737-.105 1.248-.47 1.975-.516.275-.018.635.113.95.036.63-.153 1.161-1.54 1.636-2.057.463-.504 1.02-.719 1.4-1.178.244-.116.606-.108.62-.47-.106-.11-.218-.196-.345-.16zm12.057.607c-2.404-1.334-6.473-2.337-9.03-1.084-2.064 1.012-4.853 2.685-5.804 4.806.888 2.046-.263 3.921-.337 5.999-.039 1.106.53 2.07.573 3.274-.304.493-1.232.554-1.875.52-.217-1.065-.595-2.261-1.71-2.381-1.579-.17-2.733 1.114-2.804 2.456-.085 1.577 1.232 4.192 3.1 4.01.721-.07.899-.78 1.685-.773.426.836-.657 1.098-.769 1.696-.029.154.09.757.159 1.04.34 1.378 1.095 3.161 1.84 4.21.944 1.33 2.8 1.531 4.797 1.661.356-.755 1.67-.693 2.526-.495-1.026-.4-1.98-1.368-2.77-2.225-.908-.983-1.828-2.038-1.874-3.323 1.716 2.34 3.133 4.383 6.253 5.412 2.36.779 5.117-.357 6.931-1.609.753-.52 1.202-1.346 1.737-2.102 2.002-2.83 2.936-6.87 2.73-10.787-.084-1.615-.08-3.224-.632-4.31-.576-1.137-2.524-2.153-3.665-1.126-.211-1.104.949-1.788 2.311-1.39-.971-1.233-1.99-2.714-3.372-3.48zm4.48 36.44c1.878-.919 5.388-2.472 6.566.002.434.913.944 2.455 1.17 3.396.317 1.329-.345 4.12-1.734 4.566-1.227.394-2.659.37-4.136.078a2.222 2.222 0 01-.503-.649c-1.055-.04-2.043.056-2.877.482.08.767-.449.89-.943 1.049-.367 1.43.733 3.297.47 4.6-.188.93-1.35 1.073-2.205 1.246-.028.517.038.948.096 1.384-.195.708-1.072 1.11-1.902 1.21-2.732.322-6.88.467-9.507-.462-.733-1.767-1.31-3.918-1.921-5.937-2.563.27-4.635-1.087-6.59-1.975-.676-.308-1.611-.478-1.864-1.007-.245-.513-.145-1.495-.206-2.423-.154-2.37-.287-4.655-.923-7.082-.286-1.089-.784-2.05-1.132-3.099-.321-.972-.882-2.173-1.029-3.143-.217-1.437 1.16-1.517 2.04-2.14 1.36-.963 2.429-1.495 3.902-2.365.437-.257 1.753-.909 1.903-1.209.297-.595-.511-1.433-.727-1.9-.342-.737-.52-1.363-.57-2.091a4.11 4.11 0 01-2.739-1.73c-.936-1.35-1.586-3.847-.775-5.747.063-.15.38-.443.427-.673.092-.453-.174-1.054-.19-1.535-.085-2.469.425-4.596 2.115-5.34.686-2.688 3.143-3.582 5.457-4.917.865-.5 1.819-.818 2.803-1.175 3.533-1.278 8.954-1.037 11.886 1.143 1.243.924 3.23 2.876 3.941 4.29 1.878 3.73 1.744 9.965.431 14.503-.176.61-.432 1.505-.79 2.237-.25.511-1.024 1.534-.93 1.985.097.467 1.767 1.713 2.124 2.052.645.611 1.87 1.423 1.97 2.194.106.821-.369 1.944-.61 2.737-.803 2.643-1.587 5.087-2.499 7.444z" fill="#231F20"/><path fill-rule="evenodd" clip-rule="evenodd" d="M21.021 21.088c.102-.133.663-.336 1.447.035 0 0-.93.153-.852 1.676l-.387-.076s-.4-1.381-.208-1.635z" fill="#F7E4CD"/><path fill-rule="evenodd" clip-rule="evenodd" d="M27.81 34.178c0 .231-.19.419-.425.419a.422.422 0 01-.426-.419c0-.231.19-.419.426-.419.235 0 .426.188.426.42zm.426 1.941c0 .23-.191.418-.426.418a.422.422 0 01-.426-.418c0-.232.19-.42.426-.42.235 0 .426.188.426.42z" fill="#1D1919"/></g><defs><clipPath id="clip0_2959_13517"><path fill="#fff" d="M0 0h42v57H0z"/></clipPath></defs></svg>