<svg width="40" height="40" fill="none" xmlns="http://www.w3.org/2000/svg"><path d="M28.84 13.654c.611.61.611 1.6 0 2.21L18.36 26.346c-.61.61-1.6.61-2.21 0l-4.99-4.99a1.562 1.562 0 112.21-2.21l3.885 3.886 9.377-9.378c.61-.61 1.6-.61 2.21 0zM40 20c0 11.055-8.947 20-20 20C8.945 40 0 31.053 0 20 0 8.945 8.947 0 20 0c11.055 0 20 8.947 20 20zm-3.125 0c0-9.328-7.549-16.875-16.875-16.875-9.328 0-16.875 7.549-16.875 16.875 0 9.328 7.549 16.875 16.875 16.875 9.328 0 16.875-7.549 16.875-16.875z" fill="#05D58A"/></svg>