<svg width="697" height="710" fill="none" xmlns="http://www.w3.org/2000/svg"><path opacity=".162" fill-rule="evenodd" clip-rule="evenodd" d="M375.963 37.551c44.5 8.238 79.986 16.328 119.306 36.169 44.868 22.64 69.5 64.134 77.619 96.721 8.12 32.588 5.674 73.858-20.682 108.956-23.645 31.479-4.256 88.835-44.303 106.002-39.79 17.055-127.175-9.457-172.284-18.262-43.783-8.545-66.215-47.537-102.666-70.002-43.605-26.873-123.14-30.815-131.364-74.225-8.394-44.306 75.364-58.813 98.733-98.012 22.097-37.068-12.169-97.879 30.777-119.236 42.305-21.038 94.962 22.651 144.864 31.89z" fill="#2FC6F6"/><path fill-rule="evenodd" clip-rule="evenodd" d="M329.345 587.747c-65.221 6.332-140.022 23.535-194.421-6.274-54.42-29.822-51.332-87.558-63.661-135.137-11.48-44.299-29.31-90.61-5.21-130.641 23.868-39.646 75.749-67.437 132.755-81.216 51.236-12.384 107.304-.495 161.152 10.174 46.288 9.171 85.96 26.968 126.131 46.746 47.223 23.25 100.911 41.994 127.776 78.264 31.381 42.365 63.721 97.32 31.334 136.548-32.862 39.805-118.836 27.445-179.712 43.159-47.084 12.157-86.053 33.513-136.144 38.377z" fill="#6B2BE7"/><path opacity=".122" d="M453.296 376.882c38.445 4.367 78.158-4.528 109.7-18.505 30.986-13.731 48.572-35.366 61.992-57.58 13.62-22.541 25.374-46.621 15.125-70.06-10.351-23.67-39.123-42.214-70.695-57.022-31.04-14.558-67.12-25.629-105.704-25.715-37.717-.083-71.758 11.548-102.062 25.257-29.31 13.259-60.954 28.833-66.929 51.19-5.741 21.482 24.188 39.489 37.248 59.865 11.377 17.751 14.815 36.875 34.263 51.713 23.558 17.974 50.584 36.713 87.062 40.857v0z" stroke="#3BC1D2" stroke-width="3"/></svg>