<svg width="424" height="280" fill="none" xmlns="http://www.w3.org/2000/svg"><path d="M193.156 276.658c46.133 5.241 93.789-5.433 131.639-22.205 37.183-16.478 58.286-42.439 74.391-69.096 16.343-27.05 30.448-55.946 18.149-84.072-12.421-28.405-46.947-50.657-84.833-68.427-37.248-17.47-80.544-30.755-126.846-30.857-45.259-.1-86.109 13.857-122.474 30.307C48.01 48.22 10.038 66.908 2.868 93.737c-6.89 25.778 29.025 47.386 44.697 71.838 13.652 21.301 17.779 44.249 41.116 62.055 28.269 21.569 60.7 44.056 104.475 49.028v0z" stroke="#6B2BE7" stroke-width="3"/></svg>