<svg width="91" height="91" fill="none" xmlns="http://www.w3.org/2000/svg"><g clip-path="url(#clip0_2615_12648)"><path d="M72.8.114H17.424C7.864.114.112 7.864.112 17.425v55.377c0 9.56 7.751 17.311 17.312 17.311H72.8c9.562 0 17.312-7.75 17.312-17.311V17.425c0-9.56-7.75-17.311-17.312-17.311z" fill="#0D0E0E"/><path style="mix-blend-mode:multiply" d="M49.82 82.335c18.004 0 32.599-14.596 32.599-32.6s-14.595-32.599-32.6-32.599c-18.003 0-32.598 14.595-32.598 32.6 0 18.003 14.595 32.599 32.599 32.599z" fill="url(#paint0_radial_2615_12648)"/><path d="M45.192 43.433l8-23.503a24.795 24.795 0 0116.84 23.503h-24.84z" fill="#F6F173"/><path d="M45.192 43.433l2.837 24.654a24.3 24.3 0 01-2.837.167 24.82 24.82 0 117.914-48.342l-7.914 23.521z" fill="#6B2BE7"/><path d="M51.451 19.413l-6.523 24.002 2.837 24.654a2.832 2.832 0 00-.554.08l.819-.074-2.838-24.654 7.915-23.51a18.383 18.383 0 00-1.656-.498z" fill="#6B2BE7"/><path d="M45.192 43.433h24.82A24.802 24.802 0 0148.03 68.087l-2.838-24.654z" fill="#05D58A"/></g><defs><radialGradient id="paint0_radial_2615_12648" cx="0" cy="0" r="1" gradientUnits="userSpaceOnUse" gradientTransform="translate(49.82 49.735) scale(32.5992)"><stop offset=".51" stop-color="#231F20"/><stop offset=".56" stop-color="#4E4B4B"/><stop offset=".63" stop-color="#838181"/><stop offset=".69" stop-color="#B0AEAE"/><stop offset=".76" stop-color="#D2D1D1"/><stop offset=".81" stop-color="#EBEAEB"/><stop offset=".87" stop-color="#FAFAFA"/><stop offset=".91" stop-color="#fff"/></radialGradient><clipPath id="clip0_2615_12648"><path fill="#fff" transform="translate(.112 .114)" d="M0 0h90v90H0z"/></clipPath></defs></svg>