<svg width="141" height="157" fill="none" xmlns="http://www.w3.org/2000/svg"><rect y=".541" width="140.644" height="156.107" rx="2" fill="#E3E3F1"/><path d="M95.9 117.96H54.628a2.954 2.954 0 01-2.951-2.951 2.954 2.954 0 012.951-2.952H95.9a2.954 2.954 0 012.952 2.952 2.954 2.954 0 01-2.952 2.951z" fill="#fff"/><g filter="url(#filter0_d_2658_12028)"><path d="M16 108a4 4 0 014-4h19.963a4 4 0 014 4v19.963a4 4 0 01-4 4H20a4 4 0 01-4-4V108z" fill="#6B2BE7"/></g><path d="M26.905 123.696l-4.472-4.48a.614.614 0 01-.135-.676.618.618 0 01.135-.202l2.28-2.28a.628.628 0 01.44-.182.625.625 0 01.439.182l1.933 1.926 6.14-6.139a.613.613 0 01.439-.183.608.608 0 01.439.183l2.28 2.28a.616.616 0 010 .878l-8.678 8.685a.888.888 0 01-1.24.008z" fill="#F4FEF5"/><path d="M94.894 32.821H53.623a2.952 2.952 0 110-5.903h41.271a2.952 2.952 0 010 5.903zm26.728 13.526h-68a2.952 2.952 0 110-5.903h68a2.95 2.95 0 012.952 2.951 2.95 2.95 0 01-2.952 2.952z" fill="#fff"/><g filter="url(#filter1_d_2658_12028)"><path d="M15 27a4 4 0 014-4h19.963a4 4 0 014 4v19.963a4 4 0 01-4 4H19a4 4 0 01-4-4V27z" fill="#BB64FF"/></g><path d="M26.02 42.22l-4.472-4.48a.62.62 0 010-.878l2.28-2.28a.622.622 0 01.878 0l1.933 1.926 6.14-6.14a.621.621 0 01.878 0l2.28 2.281a.618.618 0 010 .878l-8.678 8.685a.885.885 0 01-1.24.008z" fill="#F4FEF5"/><path d="M95.081 74.215H53.809a2.952 2.952 0 110-5.904h41.272a2.952 2.952 0 110 5.904zm26.727 13.526H53.809a2.952 2.952 0 010-5.903h67.999a2.954 2.954 0 012.952 2.951 2.954 2.954 0 01-2.952 2.952z" fill="#fff"/><g filter="url(#filter2_d_2658_12028)"><path d="M15 67.68a4 4 0 014-4h19.963a4 4 0 014 4v19.964a4 4 0 01-4 4H19a4 4 0 01-4-4V67.68z" fill="#05D58A"/></g><path d="M26.206 83.613l-4.472-4.48a.62.62 0 010-.877l2.28-2.28a.62.62 0 01.878 0l1.934 1.925 6.14-6.14a.62.62 0 01.877 0l2.28 2.281a.62.62 0 010 .878l-8.677 8.686a.885.885 0 01-1.24.007z" fill="#F4FEF5"/><defs><filter id="filter0_d_2658_12028" x="9" y="101" width="53.963" height="53.963" filterUnits="userSpaceOnUse" color-interpolation-filters="sRGB"><feFlood flood-opacity="0" result="BackgroundImageFix"/><feColorMatrix in="SourceAlpha" values="0 0 0 0 0 0 0 0 0 0 0 0 0 0 0 0 0 0 127 0" result="hardAlpha"/><feOffset dx="6" dy="10"/><feGaussianBlur stdDeviation="6.5"/><feColorMatrix values="0 0 0 0 0.189683 0 0 0 0 0.130622 0 0 0 0 0.286045 0 0 0 0.1 0"/><feBlend in2="BackgroundImageFix" result="effect1_dropShadow_2658_12028"/><feBlend in="SourceGraphic" in2="effect1_dropShadow_2658_12028" result="shape"/></filter><filter id="filter1_d_2658_12028" x="8" y="20" width="53.963" height="53.963" filterUnits="userSpaceOnUse" color-interpolation-filters="sRGB"><feFlood flood-opacity="0" result="BackgroundImageFix"/><feColorMatrix in="SourceAlpha" values="0 0 0 0 0 0 0 0 0 0 0 0 0 0 0 0 0 0 127 0" result="hardAlpha"/><feOffset dx="6" dy="10"/><feGaussianBlur stdDeviation="6.5"/><feColorMatrix values="0 0 0 0 0.189683 0 0 0 0 0.130622 0 0 0 0 0.286045 0 0 0 0.1 0"/><feBlend in2="BackgroundImageFix" result="effect1_dropShadow_2658_12028"/><feBlend in="SourceGraphic" in2="effect1_dropShadow_2658_12028" result="shape"/></filter><filter id="filter2_d_2658_12028" x="8" y="60.681" width="53.963" height="53.963" filterUnits="userSpaceOnUse" color-interpolation-filters="sRGB"><feFlood flood-opacity="0" result="BackgroundImageFix"/><feColorMatrix in="SourceAlpha" values="0 0 0 0 0 0 0 0 0 0 0 0 0 0 0 0 0 0 127 0" result="hardAlpha"/><feOffset dx="6" dy="10"/><feGaussianBlur stdDeviation="6.5"/><feColorMatrix values="0 0 0 0 0.189683 0 0 0 0 0.130622 0 0 0 0 0.286045 0 0 0 0.1 0"/><feBlend in2="BackgroundImageFix" result="effect1_dropShadow_2658_12028"/><feBlend in="SourceGraphic" in2="effect1_dropShadow_2658_12028" result="shape"/></filter></defs></svg>