<svg xmlns="http://www.w3.org/2000/svg" viewBox="0 0 331.21 57.03"><defs><style>.cls-1{fill:#696969;}.cls-2{fill:#f0db1f;}.cls-2,.cls-3,.cls-4,.cls-5{fill-rule:evenodd;}.cls-3{fill:#a2cc5a;}.cls-4{fill:#2d2d2d;}.cls-5{fill:#ff2e39;}</style></defs><title>Ресурс 1</title><g id="Слой_2" data-name="Слой 2"><g id="Слой_1-2" data-name="Слой 1"><g id="Слой_1-3" data-name="Слой_1"><rect class="cls-1" x="76.61" y="1.19" width="21.54" height="54.68"/><rect class="cls-1" x="38.42" y="1.19" width="21.54" height="54.68"/><polygon class="cls-2" points="76.36 1.18 98.14 1.18 59.96 55.87 38.17 55.87 76.36 1.18"/><polygon class="cls-3" points="114.77 1.18 136.55 1.18 98.36 55.87 76.58 55.87 114.77 1.18"/><path class="cls-4" d="M326,15.76V42.09a25.2,25.2,0,0,0,.11,2.78,4.71,4.71,0,0,0,.2,1.22,3,3,0,0,0,.65.06l.85-.09,1.22-.31,2.21-.68v9.78l-.82.51a11,11,0,0,1-3.17,1.28,17.47,17.47,0,0,1-3.77.39,10.7,10.7,0,0,1-3.72-.62,7,7,0,0,1-2.89-2,8.22,8.22,0,0,1-1.7-3.11l-.06-.23-1.36,1.1a22,22,0,0,1-4.53,2.67A23.3,23.3,0,0,1,304,56.49a31.21,31.21,0,0,1-5.73.54,26.34,26.34,0,0,1-7.65-1,15.76,15.76,0,0,1-5.95-3.14,13.43,13.43,0,0,1-3.8-5.16A17.61,17.61,0,0,1,279.65,41,18.4,18.4,0,0,1,281,33.65a13.47,13.47,0,0,1,4.25-5.42,23.3,23.3,0,0,1,7.8-3.57,77.85,77.85,0,0,1,12-2.24,31.89,31.89,0,0,0,4.67-.79,12.23,12.23,0,0,0,2.84-1,3.09,3.09,0,0,0,1.19-1.19,3.92,3.92,0,0,0,.4-1.82,7.48,7.48,0,0,0-.57-3,4.71,4.71,0,0,0-1.62-2,8,8,0,0,0-2.92-1.3,19.63,19.63,0,0,0-4.56-.48,21.63,21.63,0,0,0-5.07.54,9.54,9.54,0,0,0-3.38,1.56,6,6,0,0,0-1.9,2.38,9.3,9.3,0,0,0-.71,3.57l-.05,1.67H281.58l.08-1.78a22.24,22.24,0,0,1,1.79-8.11,15.61,15.61,0,0,1,4.65-6,20.37,20.37,0,0,1,7.28-3.55A38.31,38.31,0,0,1,305,0a37,37,0,0,1,8.82.94,18.69,18.69,0,0,1,6.63,2.92,13.05,13.05,0,0,1,4.14,5A16.34,16.34,0,0,1,326,15.76ZM314.21,28.91c-1.17,1-3.94,1.73-8.34,2.3a66.67,66.67,0,0,0-8.45,1.53,8.36,8.36,0,0,0-4,2.52A7,7,0,0,0,291.87,40a5.8,5.8,0,0,0,2.24,4.82c1.47,1.19,3.6,1.78,6.43,1.78,4.23,0,7.54-1.05,10-3.12s3.66-4.42,3.66-7Z"/><path class="cls-4" d="M218.79,4.17a13,13,0,0,1,3.66,5.33,19.6,19.6,0,0,1,1.19,7.08V55.81H211.82V20.55a17.65,17.65,0,0,0-.57-4.79,6.47,6.47,0,0,0-1.44-2.83,5.74,5.74,0,0,0-2.41-1.53,11.52,11.52,0,0,0-3.8-.57,14.13,14.13,0,0,0-5,.79,10.12,10.12,0,0,0-3.6,2.27,10.47,10.47,0,0,0-2.3,3.57,13.78,13.78,0,0,0-.76,4.76V55.81H180.07V20.55a16.16,16.16,0,0,0-.54-4.53,7.34,7.34,0,0,0-1.44-2.95,5.74,5.74,0,0,0-2.33-1.65,9.68,9.68,0,0,0-3.54-.59,11.93,11.93,0,0,0-5,1,10.55,10.55,0,0,0-3.74,2.84,16.71,16.71,0,0,0-2.5,4,8.84,8.84,0,0,0-.79,3.62V55.81H148.38V1.16h11.37V5.78l.45-.42a20.2,20.2,0,0,1,4.22-3A19.43,19.43,0,0,1,169.3.6a24.13,24.13,0,0,1,5.47-.6,18.25,18.25,0,0,1,9.95,2.47,12.82,12.82,0,0,1,3.49,3.11,17,17,0,0,1,1,1.48c.51-.6,1-1.14,1.56-1.67a18.88,18.88,0,0,1,4.08-3A19.29,19.29,0,0,1,199.54.6,23.17,23.17,0,0,1,204.9,0a27.91,27.91,0,0,1,7.91,1A15.19,15.19,0,0,1,218.79,4.17Z"/><polygon class="cls-4" points="227.21 1.16 240.25 1.16 253.49 40.34 266.36 1.16 278.83 1.16 258.85 55.81 257.65 55.81 247.48 55.81 227.21 1.16"/><polygon class="cls-5" points="38.19 1.18 59.97 1.18 21.79 55.87 0 55.87 38.19 1.18"/></g></g></g></svg>