<svg width="44" height="49" fill="none" xmlns="http://www.w3.org/2000/svg"><path d="M22 .5l21.213 11.999V36.5L22 48.5.787 36.501V12.5L22 .5z" fill="#fff"/><path d="M39.426 35.674l-16.724 9.46v-7.366l10.42-5.734 6.304 3.64zm1.145-1.036V14.856l-6.117 3.535v12.717l6.117 3.53zM4.51 35.674l16.723 9.46v-7.366l-10.425-5.734-6.298 3.64zm-1.146-1.036V14.856l6.117 3.535v12.717l-6.117 3.53zm.718-21.065l17.151-9.702v7.12l-10.99 6.046-.087.05-6.074-3.514zm35.771 0l-17.15-9.702v7.12l10.99 6.04.087.05 6.073-3.508z" fill="#8ED6FB"/><path d="M21.234 36.09l-10.283-5.656V19.235l10.283 5.937V36.09zm1.47 0l10.282-5.65V19.234l-10.283 5.937V36.09zM11.646 17.942l10.322-5.673 10.321 5.673-10.32 5.958-10.322-5.958z" fill="#1C78C0"/></svg>