<svg width="58" height="49" fill="none" xmlns="http://www.w3.org/2000/svg"><g clip-path="url(#clip0_2959_13602)" fill-rule="evenodd" clip-rule="evenodd"><path d="M9.05 39.34v-3.652c0-.48.3-.865.796-.865h.138c.496 0 .795.386.795.865v7.69c0 1.874-.926 3.366-2.54 4.317a4.77 4.77 0 01-2.444.666h-.343c-1.875 0-3.365-.927-4.317-2.54a4.758 4.758 0 01-.666-2.444v-.342c0-1.876.927-3.367 2.54-4.32a4.754 4.754 0 012.443-.666h.343c1.27 0 2.346.492 3.254 1.292zm-6.852 3.866c0 1.354.657 2.372 1.844 3.022a3.2 3.2 0 001.548.404c1.33 0 2.316-.628 2.996-1.754a3.245 3.245 0 00.463-1.707c0-1.174-.555-2.09-1.502-2.771a3.228 3.228 0 00-1.923-.62c-1.45 0-2.492.733-3.118 2.033-.211.44-.308.906-.308 1.393zm14.581-5.157h.24c2.004 0 3.528.973 4.494 2.722.386.7.593 1.464.593 2.264v.342c0 1.875-.925 3.37-2.541 4.318a4.783 4.783 0 01-2.443.666h-.343c-1.875 0-3.365-.927-4.317-2.54a4.758 4.758 0 01-.667-2.444v-.342c0-1.876.93-3.362 2.54-4.319a4.732 4.732 0 012.444-.666zm-3.254 5.157c0 1.314.645 2.282 1.756 2.962a3.204 3.204 0 001.704.464c1.3 0 2.26-.659 2.928-1.755a3.217 3.217 0 00.463-1.706c0-1.223-.589-2.157-1.595-2.834a3.217 3.217 0 00-1.83-.557c-1.45 0-2.492.733-3.118 2.033-.212.44-.308.906-.308 1.393zm15.772-3.288c-.262-.122-.75-.162-1.033-.173-1.445-.055-2.49.76-3.104 2.034a3.16 3.16 0 00-.308 1.392c0 1.481.778 2.519 2.1 3.15.483.232 1.107.275 1.635.275.464 0 1.12-.284 1.532-.48l.072-.034h.32l.035.008c.393.081.69.33.69.754v.171c0 1.053-1.925 1.294-2.659 1.346-2.592.179-4.53-1.244-5.269-3.716a4.48 4.48 0 01-.186-1.303V43c0-1.876.931-3.362 2.54-4.317a4.734 4.734 0 012.444-.668h.343c.922 0 1.77.262 2.532.782l.063.043.04.066c.081.136.152.293.152.455v.172c0 .441-.33.679-.73.755l-.032.006h-.102c-.258 0-.845-.267-1.075-.375zm5.61 1.172a174.27 174.27 0 012.028-2.006c.19-.185.909-.966 1.192-.966h.31l.035.007c.395.082.69.332.69.756v.171c0 .29-.338.626-.525.824-.398.42-.816.828-1.223 1.24l-2.09 2.122c.9.902 1.8 1.804 2.692 2.713.247.25.493.504.737.758.086.09.212.203.285.328.077.118.125.25.125.391v.179l-.01.041c-.098.395-.348.713-.785.713h-.138c-.286 0-.61-.323-.805-.509-.404-.38-.794-.78-1.19-1.17l-1.328-1.303v2.083c0 .48-.3.866-.797.866h-.136c-.497 0-.797-.386-.797-.866v-11.74c0-.48.3-.864.797-.864h.136c.496 0 .797.384.797.864v5.368zm21.557-2.972h.172c.519 0 .865.35.865.865 0 .717-.685.9-1.277.9-.777 0-1.518.47-2.054.997-.668.659-.96 1.502-.96 2.429v4.187c0 .48-.3.865-.797.865h-.136c-.497 0-.797-.385-.797-.865v-4.428c0-1.7.828-3.088 2.208-4.061a4.757 4.757 0 012.776-.889zm-12.293 8.298c.63.22 1.347.189 1.993.076.33-.14 1.175-.509 1.485-.455l.049.008.044.022c.19.092.371.222.468.416.226.452.118.907-.327 1.164l-.148.085c-1.64.947-3.386.816-5.021-.068-.782-.423-1.38-1.05-1.822-1.816l-.103-.178c-1.053-1.825-.91-3.743.277-5.478.41-.6.946-1.063 1.573-1.425l.237-.137c1.545-.892 3.2-.83 4.788-.048a4.684 4.684 0 012.02 1.874l.086.149c.346.6-.102 1.122-.565 1.479-.537.414-1.079.913-1.594 1.357-1.147.99-2.293 1.984-3.44 2.975zm-1.486-1.043c1.284-1.1 2.568-2.202 3.848-3.307.437-.377.917-.769 1.351-1.166-.348-.438-.93-.755-1.424-.943-.998-.38-1.982-.253-2.897.275-1.197.692-1.707 1.793-1.663 3.163.018.54.163 1.06.45 1.52.1.161.213.313.335.458zm-9.334-34.66h5.104v5.218h2.58a11.19 11.19 0 003.547-.595 9.086 9.086 0 001.724-.78c-.72-.94-1.089-2.127-1.197-3.298-.147-1.593.174-3.666 1.252-4.912l.537-.62.64.513c1.609 1.294 2.963 3.1 3.201 5.16 1.938-.57 4.214-.434 5.922.551l.701.405-.369.72c-1.445 2.82-4.465 3.693-7.418 3.539C45.155 27.62 35.535 32.83 23.87 32.83c-6.027 0-11.556-2.253-14.705-7.6l-.051-.087-.459-.933c-1.064-2.354-1.418-4.932-1.178-7.509l.072-.771h4.365v-5.218h5.104V5.609h10.208V.505h6.125v10.208z" fill="#364548"/><path d="M49.887 12.643c.342-2.66-1.648-4.749-2.883-5.74-1.422 1.644-1.643 5.954.589 7.769-1.246 1.106-3.87 2.109-6.558 2.109H8.325c-.262 2.805.23 5.388 1.355 7.6l.373.68c.235.4.493.786.77 1.157 1.346.087 2.585.116 3.72.091 2.23-.049 4.049-.312 5.427-.79a.393.393 0 01.258.743c-.184.063-.375.123-.572.18h-.001c-1.085.31-2.25.518-3.751.61.089.002-.093.014-.094.014l-.166.013a34.1 34.1 0 01-1.882.04c-.713 0-1.415-.013-2.201-.053l-.02.013c2.725 3.063 6.987 4.9 12.329 4.9 11.305 0 20.895-5.01 25.141-16.262 3.012.31 5.908-.46 7.225-3.03-2.098-1.21-4.796-.825-6.35-.044z" fill="#22A0C8"/><path d="M49.887 12.643c.342-2.66-1.648-4.749-2.883-5.74-1.422 1.644-1.643 5.954.589 7.769-1.246 1.106-3.87 2.109-6.557 2.109H10.262c-.134 4.296 1.46 7.557 4.28 9.528h.002c2.229-.049 4.048-.312 5.426-.79a.393.393 0 01.258.743c-.184.063-.375.123-.572.18-1.086.31-2.35.544-3.852.637l-.037-.035c3.848 1.974 9.426 1.967 15.823-.49 7.17-2.754 13.845-8.004 18.502-14.008-.07.032-.139.064-.205.097z" fill="#37B1D9"/><path d="M8.387 20.19c.203 1.502.643 2.91 1.294 4.19l.373.681c.235.4.492.786.77 1.157 1.346.087 2.586.116 3.72.091 2.23-.049 4.049-.312 5.427-.79a.392.392 0 01.258.743 10.79 10.79 0 01-.572.18h-.001c-1.086.31-2.343.531-3.845.624-.051.003-.141.004-.193.007a33.72 33.72 0 01-1.875.053c-.713 0-1.442-.013-2.228-.053 2.726 3.063 7.014 4.907 12.356 4.907 9.678 0 18.099-3.674 22.986-11.79H8.387z" fill="#1B81A5"/><path d="M10.557 20.19c.578 2.638 1.969 4.71 3.987 6.12 2.23-.05 4.048-.313 5.427-.79a.392.392 0 01.257.742 10.79 10.79 0 01-.572.18c-1.086.31-2.37.531-3.872.624 3.848 1.974 9.41 1.945 15.806-.512 3.87-1.486 7.593-3.7 10.934-6.364H10.557z" fill="#1D91B4"/><path d="M12.766 11.563h4.423v4.424h-4.423v-4.424zm.368.369h.35v3.686h-.35v-3.686zm.656 0h.364v3.686h-.363v-3.686zm.67 0h.364v3.686h-.364v-3.686zm.671 0h.363v3.686h-.363v-3.686zm.67 0h.363v3.686h-.363v-3.686zm.67 0h.35v3.686h-.35v-3.686zm1.399-5.473h4.424v4.423h-4.425V6.46zm.368.369h.35v3.686h-.35V6.828zm.657 0h.363v3.686h-.363V6.828zm.67 0h.363v3.686h-.363V6.828zm.67 0h.363v3.686h-.363V6.828zm.67 0h.363v3.686h-.363V6.828zm.67 0h.35v3.686h-.35V6.828z" fill="#23A3C2"/><path d="M17.87 11.563h4.423v4.423H17.87v-4.424zm.368.368h.349v3.687h-.349V11.93zm.656 0h.363v3.687h-.362V11.93zm.67 0h.363v3.687h-.363V11.93zm.67 0h.364v3.687h-.363V11.93zm.671 0h.363v3.687h-.363V11.93zm.67 0h.35v3.687h-.35V11.93z" fill="#34BBDE"/><path d="M22.973 11.563h4.423v4.423h-4.423v-4.424zm.368.368h.35v3.687h-.35V11.93zm.656 0h.363v3.687h-.363V11.93zm.67 0h.364v3.687h-.363V11.93zm.671 0h.363v3.687h-.363V11.93zm.67 0h.364v3.687h-.364V11.93zm.67 0h.35v3.687h-.35V11.93z" fill="#23A3C2"/><path d="M22.973 6.459h4.423v4.423h-4.423V6.46zm.368.369h.35v3.686h-.35V6.828zm.656 0h.363v3.686h-.363V6.828zm.67 0h.364v3.686h-.363V6.828zm.671 0h.363v3.686h-.363V6.828zm.67 0h.364v3.686h-.364V6.828zm.67 0h.35v3.686h-.35V6.828zm1.399 4.735H32.5v4.424h-4.423v-4.424zm.368.369h.35v3.686h-.35v-3.686zm.657 0h.363v3.686h-.363v-3.686zm.67 0h.363v3.686h-.363v-3.686zm.67 0h.363v3.686h-.363v-3.686zm.67 0h.364v3.686h-.364v-3.686zm.67 0h.35v3.686h-.35v-3.686z" fill="#34BBDE"/><path d="M28.077 6.459h4.424v4.423h-4.424V6.46zm.369.369h.349v3.686h-.35V6.828zm.656 0h.363v3.686h-.363V6.828zm.67 0h.363v3.686h-.363V6.828zm.67 0h.364v3.686h-.364V6.828zm.67 0h.364v3.686h-.363V6.828zm.671 0h.35v3.686h-.35V6.828z" fill="#23A3C2"/><path d="M28.077 1.355h4.424V5.78h-4.424V1.355zm.369.369h.349v3.687h-.35V1.724zm.656 0h.363v3.687h-.363V1.724zm.67 0h.363v3.687h-.363V1.724zm.67 0h.364v3.687h-.364V1.724zm.67 0h.364v3.687h-.363V1.724zm.671 0h.35v3.687h-.35V1.724z" fill="#34BBDE"/><path d="M33.18 11.563h4.424v4.423h-4.423v-4.424zm.369.368h.35v3.687h-.35V11.93zm.656 0h.363v3.687h-.363V11.93zm.67 0h.364v3.687h-.363V11.93zm.67 0h.364v3.687h-.363V11.93zm.671 0h.363v3.687h-.363V11.93zm.67 0h.35v3.687h-.35V11.93z" fill="#23A3C2"/><path d="M22.016 23.158a1.221 1.221 0 11.032 2.443 1.221 1.221 0 01-.032-2.443z" fill="#D3ECEC"/><path d="M22.015 23.506a.87.87 0 01.317.059.356.356 0 10.49.48.874.874 0 11-.807-.54zM.43 20.63H57.2c-1.237-.314-3.912-.738-3.47-2.358-2.248 2.601-7.669 1.825-9.037.543-1.523 2.21-10.391 1.37-11.01-.352-1.91 2.241-7.827 2.241-9.737 0-.619 1.721-9.487 2.561-11.01.352-1.368 1.282-6.788 2.058-9.036-.542.44 1.62-2.234 2.043-3.47 2.357" fill="#364548"/><path d="M25.259 31.953c-3.023-1.434-4.681-3.383-5.604-5.512-1.123.32-2.472.526-4.04.614-.591.033-1.213.05-1.864.05a45.07 45.07 0 01-2.376-.067c2.772 2.77 6.181 4.903 12.495 4.942.466 0 .928-.01 1.389-.027z" fill="#BDD9D7"/><path d="M20.778 28.406a10.59 10.59 0 01-1.122-1.965c-1.123.321-2.473.526-4.04.614 1.076.585 2.617 1.127 5.162 1.35" fill="#D3ECEC"/></g><defs><clipPath id="clip0_2959_13602"><path fill="#fff" transform="translate(.429 .5)" d="M0 0h57.143v48H0z"/></clipPath></defs></svg>