<svg width="256" height="63" fill="none" xmlns="http://www.w3.org/2000/svg"><path fill-rule="evenodd" clip-rule="evenodd" d="M65.905 24.105a7.86 7.86 0 0 0-.808-.707 6.923 6.923 0 0 0-.897-.64 13.133 13.133 0 0 0-.987-.556c-.344-.163-4.89-2.297-5.448-2.602-.516-.282-1.278-.613-1.204-1.716.09-1.348 1.337-1.456 2.518-1.456l7.445-.002v-5.458c-2.36.002-5.184 0-7.5 0-2.477.068-4.51.67-6.036 1.765-.844.606-1.472 1.314-1.885 2.173-.413.826-.61 1.786-.61 2.865v.64c0 .825.143 1.567.43 2.224.288.64.683 1.213 1.167 1.735.252.253.52.489.808.708.27.236.574.438.897.64a23.906 23.906 0 0 0 2.028 1.078s3.727 1.71 4.409 2.078c.48.259 1.277.613 1.203 1.715-.09 1.348-1.336 1.456-2.517 1.456H50v5.458h8.973c2.476-.068 4.51-.67 6.034-1.765.844-.606 1.472-1.313 1.884-2.172.413-.825.61-1.785.61-2.863v-.64c0-.825-.143-1.567-.43-2.223a6.39 6.39 0 0 0-1.166-1.735Zm16.103 5.425c-.164.085-.429.205-.63.289-.31.118-.675.236-1.078.354a8.463 8.463 0 0 1-2.301.286c-.347 0-.676-.033-.968-.118a4.178 4.178 0 0 1-.804-.337c-.402-.253-.622-.724-.622-1.432V27.14c0-.388.055-.725.165-.995.11-.27.256-.488.475-.674.2-.185.475-.32.804-.421.383-.101.84-.152 1.388-.152H82.008v4.632Zm6.127-11.617c0-1.212-.25-2.272-.733-3.164a6.046 6.046 0 0 0-.877-1.195 5.641 5.641 0 0 0-1.127-.993 7.25 7.25 0 0 0-1.341-.74 8.383 8.383 0 0 0-1.52-.523c-1.107-.242-2.788-.315-3.378-.315-3.06 0-4.662-.034-7.721 0v5.454h7.665c2.793 0 2.905 1.834 2.905 2.12v1.092l-3.18.005c-.484 0-2.052-.024-2.535.043a8.95 8.95 0 0 0-1.449.32c-.482.135-.947.32-1.395.522a8.37 8.37 0 0 0-1.252.757 5.832 5.832 0 0 0-1.073.993c-.34.37-.626.775-.877 1.212-.25.455-.447.943-.572 1.482-.143.538-.197 1.094-.197 1.7v1.7c0 1.447.215 2.625.662 3.55.215.472.483.893.787 1.263.304.37.662.69 1.055.96.376.252.787.47 1.235.656.429.168.894.303 1.413.404.465.101.966.168 1.467.219.518.05 1.037.067 1.538.067.358 0 .77-.017 1.252-.05.448-.05.93-.101 1.467-.185a10.54 10.54 0 0 0 1.681-.388c.483-.134.966-.32 1.467-.538l1.073.623.223.123h3.338V17.913Zm12.148-10.22c0-.404.043-.776.114-1.079.071-.287.195-.522.337-.724.142-.203.319-.37.532-.506.195-.134.426-.235.692-.303.245-.06.559-.09.896-.09h4.213l.93-4.99h-5.143c-1.136 0-2.28.031-2.777.116a7.582 7.582 0 0 0-1.934.572c-.55.253-1.047.54-1.473.86-.426.32-.799.673-1.1 1.06-.302.388-.55.792-.746 1.213a5.603 5.603 0 0 0-.426 1.33c-.07.439-.142.86-.177 1.28a9.81 9.81 0 0 0-.071 1.214l.004 3.79h-4.048v5.455h4.049l-.005 17.638v.522h6.123v-.522l.01-17.635h4.596l.984-5.458h-5.58V7.693Zm12.707 11.955V18.58c-.018-.42.053-.792.194-1.116.142-.308.372-.583.673-.793.319-.243.673-.42 1.098-.534.425-.113.92-.178 1.451-.178.567 0 1.045.065 1.47.178.389.13.726.291.991.534.266.227.478.485.602.81.142.323.213.695.213 1.115v.017l.035 1.035h-6.727Zm12.223-3.378a5.95 5.95 0 0 0-.55-1.482 6.081 6.081 0 0 0-.887-1.297 5.916 5.916 0 0 0-1.26-1.095 8.16 8.16 0 0 0-1.65-.809c-.604-.236-1.296-.404-2.058-.522v.017c-.781-.118-1.633-.114-2.538-.114-1.366 0-2.609.097-3.726.434-1.153.337-2.147.825-3.035 1.5a6.49 6.49 0 0 0-2.005 2.576c-.443 1.01-.656 2.19-.656 3.52v8.776c0 .758.053 1.449.195 2.072.142.64.337 1.212.603 1.701.284.505.586.944.958 1.348.355.404.781.758 1.225 1.06.461.287.958.54 1.49.742.515.219 1.083.37 1.704.488 1.171.22 2.413.32 3.708.32l7.79-.002v-5.458h-7.8c-1.047 0-1.641-.169-1.766-.186a3.742 3.742 0 0 1-.748-.288 1.895 1.895 0 0 1-.517-.34 1.913 1.913 0 0 1-.356-.406 1.616 1.616 0 0 1-.196-.51c-.054-.22-.089-.44-.125-.66-.018-.238-.036-.475-.036-.747l-.001-2.01h12.539v-5.457c0-.556.013-1.172-.018-1.605a9.044 9.044 0 0 0-.284-1.566Zm20.051 12.891c0 1.033-.349 1.827-.989 2.407-.621.58-1.436.978-2.426 1.214-.989.217-2.076.29-3.26.18a18.713 18.713 0 0 1-3.391-.578V16.322c.691-.561 1.606-1.042 2.751-1.423 1.145-.38 2.27-.543 3.337-.489 1.087.054 1.999.38 2.776.96.776.598 1.202 1.6 1.202 3.031v10.76Zm1.32-17.015a7.454 7.454 0 0 0-2.678-.943c-.951-.144-1.824-.235-2.639-.235-.33 0-.718.036-1.203.09-.466.037-.97.145-1.533.29-.543.145-1.106.344-1.688.562-.583.236-1.169.585-1.687.93V0h-4.116l.001 35.503a42.92 42.92 0 0 0 4.948.703 49.59 49.59 0 0 0 4.366.181c1.358 0 2.581-.145 3.687-.399 1.106-.271 2.057-.688 2.853-1.268.796-.562 1.417-1.322 1.863-2.246.446-.924.664-2.058.664-3.417V17.726c0-1.486-.218-2.645-.781-3.533-.543-.888-1.222-1.576-2.057-2.047Zm19.63 16.648c0 .761-.15 1.396-.45 1.903a3.89 3.89 0 0 1-1.2 1.25 5.203 5.203 0 0 1-1.65.653c-.599.145-1.181.2-1.762.2a7.404 7.404 0 0 1-1.762-.2 4.842 4.842 0 0 1-1.613-.652 4.067 4.067 0 0 1-1.181-1.25c-.3-.508-.45-1.143-.45-1.904V18.77c0-.76.15-1.395.45-1.92a4.28 4.28 0 0 1 1.181-1.251 4.55 4.55 0 0 1 1.613-.69c.6-.144 1.181-.199 1.762-.199s1.163.055 1.762.2c.6.127 1.144.362 1.65.689.488.326.882.743 1.2 1.25.3.526.45 1.16.45 1.921v10.024Zm1.523-16.016c-.835-.616-1.803-1.05-2.922-1.34a15.694 15.694 0 0 0-3.662-.418c-1.309 0-2.524.146-3.643.417-1.12.29-2.088.743-2.904 1.36-.815.633-1.441 1.43-1.916 2.409-.455.96-.702 2.138-.702 3.533v9.875c0 1.395.247 2.573.702 3.57.475.978 1.101 1.775 1.916 2.391.816.616 1.784 1.069 2.904 1.359 1.119.308 2.334.453 3.643.453 1.309 0 2.523-.145 3.662-.453 1.119-.29 2.087-.743 2.922-1.359.816-.616 1.461-1.413 1.935-2.392.475-.996.702-2.174.702-3.569v-9.93c0-1.376-.227-2.554-.702-3.532a6.419 6.419 0 0 0-1.935-2.374ZM191 11.436h-4.703l-5.082 8.232-5.101-8.232h-4.703l7.472 11.989-7.472 12.078h4.608l5.196-8.34 5.177 8.34H191l-7.471-12.078L191 11.436Z" fill="#700175"/><path fill-rule="evenodd" clip-rule="evenodd" d="M17.681 24.457v17.387l15.247-8.694V15.765L17.68 24.457ZM16.466 5 1.219 13.694l15.246 8.693 15.247-8.694L16.466 5Z" fill="#62BC00"/><path fill-rule="evenodd" clip-rule="evenodd" d="M9.083 29.336v5.778l-2.888-1.65v-5.768c-.657-.885-1.063-1.975-1.063-2.953 0-1.573 1.049-2.25 2.507-1.417 1.457.832 2.473 2.688 2.473 4.26 0 .973-.388 1.606-1.029 1.75Zm6.163-4.922L0 15.718v17.388L15.246 41.8" fill="#700175"/><path opacity=".8" d="M55.36 59.09c-1.04 0-1.98-.23-2.82-.69a5.138 5.138 0 0 1-1.965-1.905c-.47-.82-.705-1.735-.705-2.745s.235-1.92.705-2.73c.48-.82 1.14-1.46 1.98-1.92.84-.46 1.78-.69 2.82-.69.78 0 1.5.13 2.16.39.66.26 1.22.64 1.68 1.14l-.705.705c-.82-.83-1.855-1.245-3.105-1.245-.83 0-1.585.19-2.265.57-.68.38-1.215.9-1.605 1.56-.38.66-.57 1.4-.57 2.22 0 .82.19 1.56.57 2.22.39.66.925 1.18 1.605 1.56.68.38 1.435.57 2.265.57 1.26 0 2.295-.42 3.105-1.26l.705.705c-.46.5-1.025.885-1.695 1.155-.66.26-1.38.39-2.16.39Zm8.757-3.6h-1.8V59h-1.065v-7.89h1.065v3.465h1.815l2.775-3.465h1.155l-3.105 3.825L68.287 59h-1.26l-2.91-3.51Zm12.301-4.38V59h-1.065v-6.945h-3.78l-.105 1.95c-.08 1.64-.27 2.9-.57 3.78-.3.88-.835 1.32-1.605 1.32-.21 0-.465-.04-.765-.12l.075-.915c.18.04.305.06.375.06.41 0 .72-.19.93-.57.21-.38.35-.85.42-1.41.07-.56.13-1.3.18-2.22l.135-2.82h5.775Zm5.743-.06c1.03 0 1.82.26 2.37.78.55.51.825 1.27.825 2.28V59h-1.02v-1.23c-.24.41-.595.73-1.065.96-.46.23-1.01.345-1.65.345-.88 0-1.58-.21-2.1-.63-.52-.42-.78-.975-.78-1.665 0-.67.24-1.21.72-1.62.49-.41 1.265-.615 2.325-.615h2.505v-.48c0-.68-.19-1.195-.57-1.545-.38-.36-.935-.54-1.665-.54-.5 0-.98.085-1.44.255-.46.16-.855.385-1.185.675l-.48-.795c.4-.34.88-.6 1.44-.78.56-.19 1.15-.285 1.77-.285Zm-.375 7.185c.6 0 1.115-.135 1.545-.405.43-.28.75-.68.96-1.2v-1.29h-2.475c-1.35 0-2.025.47-2.025 1.41 0 .46.175.825.525 1.095.35.26.84.39 1.47.39Zm14.1-.165v2.835H94.88V59h-7.065v1.905H86.81V58.07h.45c.53-.03.89-.42 1.08-1.17.19-.75.32-1.8.39-3.15l.105-2.64h5.82v6.96h1.23Zm-6.18-4.26c-.05 1.12-.145 2.045-.285 2.775-.14.72-.39 1.215-.75 1.485h4.92v-6.015h-3.795l-.09 1.755Zm19.876 4.26v2.835h-1.005V59h-7.065v1.905h-1.005V58.07h.45c.53-.03.89-.42 1.08-1.17.19-.75.32-1.8.39-3.15l.105-2.64h5.82v6.96h1.23Zm-6.18-4.26c-.05 1.12-.145 2.045-.285 2.775-.14.72-.39 1.215-.75 1.485h4.92v-6.015h-3.795l-.09 1.755Zm14.706-2.7V59h-1.065v-6.945h-3.78l-.105 1.95c-.08 1.64-.27 2.9-.57 3.78-.3.88-.835 1.32-1.605 1.32-.21 0-.465-.04-.765-.12l.075-.915c.18.04.305.06.375.06.41 0 .72-.19.93-.57.21-.38.35-.85.42-1.41.07-.56.13-1.3.18-2.22l.135-2.82h5.775Zm9.087 0V59h-.975v-2.61h-2.775l-1.83 2.61h-1.155l1.965-2.76c-.61-.17-1.08-.46-1.41-.87-.33-.41-.495-.93-.495-1.56 0-.88.3-1.55.9-2.01.6-.46 1.42-.69 2.46-.69h3.315Zm-5.595 2.73c0 1.17.745 1.755 2.235 1.755h2.385v-3.54h-2.31c-1.54 0-2.31.595-2.31 1.785Zm20.253 4.23v2.835h-1.005V59h-7.065v1.905h-1.005V58.07h.45c.53-.03.89-.42 1.08-1.17.19-.75.32-1.8.39-3.15l.105-2.64h5.82v6.96h1.23Zm-6.18-4.26c-.05 1.12-.145 2.045-.285 2.775-.14.72-.39 1.215-.75 1.485h4.92v-6.015h-3.795l-.09 1.755Zm11.51 5.265c-.76 0-1.445-.17-2.055-.51-.61-.35-1.09-.83-1.44-1.44-.35-.61-.525-1.3-.525-2.07 0-.77.175-1.46.525-2.07a3.72 3.72 0 0 1 1.44-1.425c.61-.34 1.295-.51 2.055-.51.76 0 1.445.17 2.055.51.61.34 1.085.815 1.425 1.425.35.61.525 1.3.525 2.07 0 .77-.175 1.46-.525 2.07a3.72 3.72 0 0 1-1.425 1.44c-.61.34-1.295.51-2.055.51Zm0-.945c.56 0 1.06-.125 1.5-.375.45-.26.8-.625 1.05-1.095s.375-1.005.375-1.605c0-.6-.125-1.135-.375-1.605s-.6-.83-1.05-1.08c-.44-.26-.94-.39-1.5-.39s-1.065.13-1.515.39c-.44.25-.79.61-1.05 1.08-.25.47-.375 1.005-.375 1.605 0 .6.125 1.135.375 1.605.26.47.61.835 1.05 1.095.45.25.955.375 1.515.375Zm15.101-7.02V59h-.975v-6.24l-3.195 5.28h-.48l-3.195-5.295V59h-.975v-7.89h1.08l3.345 5.685 3.405-5.685h.99Zm5.746-.06c1.03 0 1.82.26 2.37.78.55.51.825 1.27.825 2.28V59h-1.02v-1.23c-.24.41-.595.73-1.065.96-.46.23-1.01.345-1.65.345-.88 0-1.58-.21-2.1-.63-.52-.42-.78-.975-.78-1.665 0-.67.24-1.21.72-1.62.49-.41 1.265-.615 2.325-.615h2.505v-.48c0-.68-.19-1.195-.57-1.545-.38-.36-.935-.54-1.665-.54-.5 0-.98.085-1.44.255-.46.16-.855.385-1.185.675l-.48-.795c.4-.34.88-.6 1.44-.78.56-.19 1.15-.285 1.77-.285Zm-.375 7.185c.6 0 1.115-.135 1.545-.405.43-.28.75-.68.96-1.2v-1.29h-2.475c-1.35 0-2.025.47-2.025 1.41 0 .46.175.825.525 1.095.35.26.84.39 1.47.39Zm18.041.93-1.455-1.5c-.89.95-2.06 1.425-3.51 1.425-.68 0-1.29-.11-1.83-.33-.53-.23-.945-.545-1.245-.945-.3-.41-.45-.875-.45-1.395 0-.63.2-1.195.6-1.695.4-.5 1.08-1.025 2.04-1.575-.5-.52-.845-.96-1.035-1.32-.19-.37-.285-.76-.285-1.17 0-.67.24-1.21.72-1.62.48-.41 1.125-.615 1.935-.615.75 0 1.345.185 1.785.555.44.37.66.88.66 1.53 0 .52-.175.99-.525 1.41-.35.41-.955.865-1.815 1.365l2.88 2.97c.32-.57.555-1.245.705-2.025l.87.27c-.19.94-.5 1.745-.93 2.415l1.5 1.545-.615.705Zm-4.515-9.945c-.52 0-.93.13-1.23.39-.29.26-.435.605-.435 1.035 0 .31.08.605.24.885.16.28.475.66.945 1.14.76-.44 1.285-.815 1.575-1.125.29-.31.435-.65.435-1.02 0-.4-.135-.715-.405-.945-.27-.24-.645-.36-1.125-.36Zm-.39 8.985c1.16 0 2.1-.395 2.82-1.185l-3.165-3.255c-.83.47-1.405.895-1.725 1.275-.31.38-.465.805-.465 1.275 0 .57.23 1.03.69 1.38.47.34 1.085.51 1.845.51Zm14.98-6.9c.73 0 1.38.165 1.95.495.58.32 1.03.775 1.35 1.365.32.58.48 1.245.48 1.995 0 .77-.17 1.455-.51 2.055-.33.59-.795 1.05-1.395 1.38-.6.33-1.29.495-2.07.495-1.31 0-2.325-.46-3.045-1.38-.72-.92-1.08-2.19-1.08-3.81 0-1.69.32-2.985.96-3.885.65-.9 1.66-1.51 3.03-1.83l3.54-.81.18.975-3.33.765c-1.13.25-1.96.695-2.49 1.335-.53.63-.82 1.565-.87 2.805.32-.61.765-1.085 1.335-1.425.57-.35 1.225-.525 1.965-.525Zm-.165 6.9c.55 0 1.04-.125 1.47-.375.44-.26.78-.62 1.02-1.08.25-.46.375-.98.375-1.56 0-.58-.12-1.09-.36-1.53-.24-.44-.58-.78-1.02-1.02-.43-.25-.925-.375-1.485-.375s-1.06.125-1.5.375c-.43.24-.77.58-1.02 1.02-.24.44-.36.95-.36 1.53 0 .58.12 1.1.36 1.56.25.46.595.82 1.035 1.08.44.25.935.375 1.485.375Zm6.227-7.095h1.065v6.27l5.265-6.27h.945V59h-1.065v-6.27l-5.25 6.27h-.96v-7.89Zm14.006 3.78c.56.13.99.355 1.29.675.31.32.465.71.465 1.17 0 .46-.16.87-.48 1.23-.31.36-.735.64-1.275.84-.54.19-1.135.285-1.785.285-.57 0-1.13-.08-1.68-.24a4.451 4.451 0 0 1-1.44-.735l.36-.795c.36.27.78.48 1.26.63.48.15.965.225 1.455.225.73 0 1.325-.135 1.785-.405.47-.28.705-.655.705-1.125 0-.42-.19-.745-.57-.975-.38-.24-.9-.36-1.56-.36h-1.35v-.78h1.29c.59 0 1.065-.11 1.425-.33.36-.23.54-.535.54-.915 0-.42-.205-.75-.615-.99-.4-.24-.925-.36-1.575-.36-.85 0-1.69.215-2.52.645l-.3-.825a6.25 6.25 0 0 1 2.925-.735c.6 0 1.14.09 1.62.27.49.17.87.415 1.14.735.28.32.42.69.42 1.11 0 .4-.14.755-.42 1.065-.27.31-.64.54-1.11.69Zm4.173-3.78h1.065v3.495h4.965V51.11h1.065V59h-1.065v-3.48h-4.965V59h-1.065v-7.89Zm17.022 4.275h-6.6c.06.82.375 1.485.945 1.995.57.5 1.29.75 2.16.75.49 0 .94-.085 1.35-.255.41-.18.765-.44 1.065-.78l.6.69c-.35.42-.79.74-1.32.96-.52.22-1.095.33-1.725.33-.81 0-1.53-.17-2.16-.51a3.798 3.798 0 0 1-1.455-1.44c-.35-.61-.525-1.3-.525-2.07 0-.77.165-1.46.495-2.07.34-.61.8-1.085 1.38-1.425.59-.34 1.25-.51 1.98-.51s1.385.17 1.965.51c.58.34 1.035.815 1.365 1.425.33.6.495 1.29.495 2.07l-.015.33Zm-3.81-3.42c-.76 0-1.4.245-1.92.735-.51.48-.8 1.11-.87 1.89h5.595c-.07-.78-.365-1.41-.885-1.89-.51-.49-1.15-.735-1.92-.735Zm9.483 7.11c-.78 0-1.48-.17-2.1-.51a3.72 3.72 0 0 1-1.44-1.425c-.35-.62-.525-1.315-.525-2.085s.175-1.46.525-2.07a3.72 3.72 0 0 1 1.44-1.425c.62-.34 1.32-.51 2.1-.51.68 0 1.285.135 1.815.405.54.26.965.645 1.275 1.155l-.795.54c-.26-.39-.59-.68-.99-.87-.4-.2-.835-.3-1.305-.3-.57 0-1.085.13-1.545.39a2.7 2.7 0 0 0-1.065 1.08c-.25.47-.375 1.005-.375 1.605 0 .61.125 1.15.375 1.62.26.46.615.82 1.065 1.08.46.25.975.375 1.545.375.47 0 .905-.095 1.305-.285.4-.19.73-.48.99-.87l.795.54c-.31.51-.735.9-1.275 1.17-.54.26-1.145.39-1.815.39Zm7.867-8.025c1.03 0 1.82.26 2.37.78.55.51.825 1.27.825 2.28V59h-1.02v-1.23c-.24.41-.595.73-1.065.96-.46.23-1.01.345-1.65.345-.88 0-1.58-.21-2.1-.63-.52-.42-.78-.975-.78-1.665 0-.67.24-1.21.72-1.62.49-.41 1.265-.615 2.325-.615h2.505v-.48c0-.68-.19-1.195-.57-1.545-.38-.36-.935-.54-1.665-.54-.5 0-.98.085-1.44.255-.46.16-.855.385-1.185.675l-.48-.795c.4-.34.88-.6 1.44-.78.56-.19 1.15-.285 1.77-.285Zm-.375 7.185c.6 0 1.115-.135 1.545-.405.43-.28.75-.68.96-1.2v-1.29h-2.475c-1.35 0-2.025.47-2.025 1.41 0 .46.175.825.525 1.095.35.26.84.39 1.47.39Z" fill="#1D2123"/><g clip-path="url(#a)"><path d="M222.708 35.939c-.849-.242-1.45-.916-1.647-1.846-.091-.429-.078-1.37.025-1.766.183-.704.624-1.32 1.13-1.577.726-.37 1.796-.358 2.456.028.499.292.967.964.967 1.39v.174l-.514-.015-.514-.015-.168-.317c-.136-.257-.216-.343-.424-.45a1.258 1.258 0 0 0-1.51.28c-.603.686-.563 2.291.073 2.925.241.241.44.32.819.322.559.003.899-.227 1.096-.742l.091-.237h1.065l-.031.192c-.053.325-.336.855-.595 1.113a2.472 2.472 0 0 1-.6.41c-.313.147-.418.168-.916.183-.349.01-.654-.01-.803-.052Zm8.206-.004c-.375-.082-.815-.322-1.024-.56-.714-.812-.638-2.338.152-3.032.369-.324.741-.448 1.351-.448.872 0 1.425.319 1.77 1.017.17.344.175.375.175 1.02 0 .61-.012.692-.141.967-.26.553-.768.934-1.403 1.05-.379.07-.5.069-.88-.014Zm.964-.95c.284-.189.441-.56.44-1.047-.001-.503-.076-.733-.314-.964-.169-.163-.222-.182-.545-.198-.466-.024-.68.086-.865.445-.112.216-.133.331-.133.711.001.384.021.49.133.691.191.34.424.48.799.48.226 0 .35-.03.485-.119Zm10.811.95c-.375-.082-.815-.322-1.024-.56-.597-.678-.662-1.938-.141-2.7.371-.542.872-.78 1.644-.78.872 0 1.426.319 1.77 1.017.17.344.175.375.175 1.02 0 .61-.012.692-.141.967-.26.553-.767.934-1.403 1.05-.379.07-.5.069-.88-.014Zm.964-.95c.285-.19.446-.57.444-1.051-.002-.497-.079-.728-.32-.961-.183-.177-.201-.183-.615-.183h-.428l-.203.219c-.478.511-.393 1.606.153 1.974.251.168.716.169.969.001Zm6.968.969c-.988-.167-1.592-.931-1.592-2.016 0-1.13.588-1.857 1.641-2.03.964-.16 1.87.316 2.197 1.15.175.449.178 1.296.005 1.737-.238.607-.771 1.026-1.468 1.155-.35.064-.424.064-.783.004Zm.84-.937a.868.868 0 0 0 .327-.332c.13-.221.145-.297.145-.751 0-.424-.02-.542-.122-.733-.169-.317-.386-.437-.789-.437-.613 0-.927.378-.927 1.12 0 .61.171 1 .501 1.144.227.099.644.093.865-.01Zm-18.068.852c-.064-.064-.083-.165-.071-.386l.016-.3.224-.03c.269-.035.415-.154.471-.384.023-.094.055-.757.073-1.473l.031-1.303h3.09l.014 1.926.014 1.927-.121.03a2.645 2.645 0 0 1-.494.015l-.372-.016-.026-1.516-.027-1.515h-1.066l-.033 1.01c-.038 1.137-.106 1.452-.381 1.764-.225.256-.438.337-.885.337-.271 0-.395-.024-.457-.086Zm-7.356-.032c-.015-.038-.02-.918-.013-1.957l.014-1.887h.959l.016.637c.008.35.034.657.058.68.024.025.291-.238.593-.583.303-.345.587-.658.631-.694.054-.044.27-.067.631-.067.404 0 .549.018.549.067-.001.036-.276.369-.613.74-.337.37-.612.696-.612.724 0 .029.261.495.581 1.036.692 1.17.757 1.292.713 1.335-.018.018-.267.033-.554.033-.385 0-.54-.02-.597-.077-.043-.043-.263-.414-.489-.824-.225-.411-.427-.747-.448-.747-.021 0-.121.085-.222.189l-.183.189-.027.622-.027.622-.467.015c-.344.012-.474-.002-.493-.053Zm11.775 0c-.015-.038-.02-.918-.012-1.957l.014-1.887h.959l.015.637c.008.35.035.657.06.682.024.025.291-.238.593-.584.301-.346.585-.659.629-.695.054-.044.27-.067.631-.067.404 0 .549.018.549.067 0 .036-.276.369-.613.74-.337.37-.612.695-.612.722 0 .027.299.56.664 1.183.365.623.652 1.153.636 1.178-.015.025-.264.045-.554.045-.39 0-.546-.02-.603-.077-.043-.043-.263-.414-.488-.824-.226-.411-.428-.747-.449-.747-.021 0-.12.085-.221.189l-.184.189-.027.622-.026.622-.467.015c-.345.012-.474-.002-.494-.053Zm7.727.003c-.015-.04-.021-.922-.014-1.96l.014-1.887 1.146.001c1.086.002 1.16.008 1.426.126.302.136.577.405.631.621.019.075.021.248.006.385-.024.215-.064.282-.286.483-.238.215-.251.238-.158.292.415.245.583.516.583.947 0 .42-.182.693-.594.885-.295.138-.334.142-1.515.16-.981.015-1.217.005-1.239-.053Zm2.169-.756c.238-.18.24-.592.005-.777-.116-.091-.216-.107-.662-.107h-.526v.957l.546-.002c.364 0 .577-.025.637-.07Zm-.231-1.581c.093-.033.193-.103.221-.156.073-.136.065-.386-.016-.496-.08-.11-.391-.19-.74-.192-.404-.002-.417.012-.417.447 0 .212.016.4.036.42.057.058.733.04.916-.023Zm-20.453-3.987c-3.117-.382-4.946-1.743-5.567-4.142-.087-.335-.182-1.214-.144-1.328.025-.076 3.239-.08 3.287-.004.018.029.055.202.084.385.157 1.019.953 1.818 2.111 2.12 1.097.285 2.866.158 3.772-.272.665-.316 1.056-.845 1.126-1.522.091-.88-.342-1.439-1.415-1.83-.247-.09-1.599-.45-3.005-.8-3.158-.788-3.653-.979-4.436-1.71-1.128-1.053-1.563-2.835-1.117-4.58.517-2.024 2.02-3.268 4.484-3.71.855-.153 2.556-.165 3.351-.024.728.13 1.354.317 1.877.562.482.225 1.133.654 1.372.904.266.277.294.232.294-.473 0-.527.014-.638.084-.665.11-.042 2.972-.042 3.082 0 .076.03.084.473.084 4.468 0 3.514.014 4.434.067 4.432.037-.002.961-1.031 2.054-2.287l1.987-2.284h1.946c1.665 0 1.944.011 1.929.077-.009.042-.928 1.075-2.042 2.295-1.113 1.22-2.058 2.271-2.099 2.336-.07.11.064.352 2.122 3.846 1.208 2.05 2.181 3.753 2.162 3.783-.039.063-3.694.076-3.789.014-.032-.022-.689-1.176-1.459-2.565-.77-1.39-1.435-2.563-1.478-2.606-.068-.07-.155.002-.736.611l-.66.692-.015 1.94-.015 1.942h-3.197l-.016-.386c-.009-.22-.039-.385-.071-.385-.03 0-.196.082-.369.183-.727.425-1.554.713-2.634.917-.51.096-2.423.139-3.011.066Zm6.062-10.61-.014-1.485-.957-.027-.957-.026-.069-.346c-.282-1.417-1.39-2.137-3.292-2.14-1.444-.003-2.41.415-2.803 1.212-.312.633-.216 1.432.227 1.887.381.392.489.426 4.407 1.379 1.717.418 2.32.602 2.964.904.234.11.445.184.467.164.023-.02.035-.704.027-1.521Z" fill="#62BC00"/></g><path opacity=".1" fill="#1D2123" d="M205 11h1v24h-1z"/><defs><clipPath id="a"><path fill="#fff" transform="translate(221 12)" d="M0 0h32v24H0z"/></clipPath></defs></svg>