<svg width="48" height="49" fill="none" xmlns="http://www.w3.org/2000/svg"><g clip-path="url(#clip0_2959_13492)"><path d="M19.374 48.223c-4.192-.868-8.104-2.804-11.175-5.532-7.884-7.001-10.32-18-6.155-27.788 1.022-2.403 2.685-4.842 4.745-6.961l1.817-1.869.128 10.935c.122 10.466.15 10.993.645 12.312.99 2.639 2.052 4.319 3.88 6.14 4.722 4.702 11.648 5.875 17.536 2.97 5.534-2.73 9.023-8.666 8.618-14.663-.273-4.028-1.627-6.982-4.552-9.924-2.211-2.226-4.813-3.68-7.646-4.272-2.882-.603-2.744-.691-2.744 1.748v2.106l1.58.292c6.12 1.127 10.166 7.136 8.89 13.2-.406 1.936-1.315 3.647-2.774 5.222-2.216 2.394-5.335 3.538-8.058 3.533-4.502-.008-8.262-2.567-10.084-6.35 0 0-.477-1.082-.63-1.75-.903-3.93-.326-12.204-.326-12.204l-.07-12.096.714-.37c.393-.203.77-.369.837-.369.068 0 .154 5.556.191 12.347 0 0-.867 8.902.204 12.313.155.492.449 1.334.449 1.334.939 1.914 2.445 3.597 4.4 4.524 1.486.703 2.234 1.022 4.43 1.022 1.436 0 2.708-.453 4.171-1.126 1.725-.794 3.704-2.897 4.435-4.818 2.014-5.29-.79-10.983-6.195-12.57-2.209-.65-2.164-.685-2.164 1.717v2.098l1.06.283c3.822 1.022 4.988 6.144 1.988 8.776-1.06.93-2.015 1.341-3.685 1.341-1.786 0-3.5-1.08-4.38-2.738a5.055 5.055 0 01-.574-2.372c0-3.995-.087-11.18-.087-11.18l-.071-12.325.548-.136c.302-.075 1.522-.26 2.71-.412 4.033-.515 9.998.805 14.005 3.098 5.464 3.126 9.598 8.496 11.32 14.703.592 2.135.657 2.756.657 6.19 0 3.42-.067 4.06-.647 6.15-2.34 8.435-8.296 14.466-16.811 17.023-1.792.539-2.632.641-5.794.709-2.552.054-4.206-.027-5.336-.26z" fill="#C60C30"/></g><defs><clipPath id="clip0_2959_13492"><path fill="#fff" transform="translate(.036 .5)" d="M0 0h47.927v48H0z"/></clipPath></defs></svg>