<svg width="32" height="43" fill="none" xmlns="http://www.w3.org/2000/svg"><g clip-path="url(#clip0_2828_12357)"><path d="M8.24 42.5c4.284 0 7.76-3.136 7.76-7v-7H8.24c-4.282 0-7.759 3.136-7.759 7s3.477 7 7.76 7z" fill="#0ACF83"/><path d="M.481 21.5c0-3.864 3.477-7 7.76-7H16v14H8.24c-4.283 0-7.76-3.136-7.76-7z" fill="#A259FF"/><path d="M.481 7.5c0-3.864 3.477-7 7.76-7H16v14H8.24c-4.283 0-7.76-3.136-7.76-7z" fill="#F24E1E"/><path d="M16 .5h7.76c4.282 0 7.759 3.136 7.759 7s-3.476 7-7.76 7H16V.5z" fill="#FF7262"/><path d="M31.519 21.5c0 3.864-3.476 7-7.76 7-4.283 0-7.759-3.136-7.759-7s3.476-7 7.76-7c4.282 0 7.759 3.136 7.759 7z" fill="#1ABCFE"/></g><defs><clipPath id="clip0_2828_12357"><path fill="#fff" transform="translate(.479 .5)" d="M0 0h31.044v42H0z"/></clipPath></defs></svg>