<svg width="62" height="33" fill="none" xmlns="http://www.w3.org/2000/svg"><path d="M.384 16.5c0 9.03 13.707 16.35 30.614 16.35s30.614-7.32 30.614-16.35C61.612 7.47 47.905.15 30.998.15 14.09.15.384 7.47.384 16.5z" fill="url(#paint0_radial_2959_13458)"/><path d="M30.998 31.635c16.247 0 29.419-6.777 29.419-15.137S47.245 1.361 30.998 1.361 1.58 8.138 1.58 16.498s13.171 15.137 29.418 15.137z" fill="#777BB3"/><path d="M17.021 18.378c1.336 0 2.333-.25 2.964-.744.625-.488 1.056-1.333 1.282-2.513.21-1.102.13-1.872-.239-2.287-.377-.425-1.193-.64-2.424-.64H16.47l-1.183 6.184h1.735zm-6.983 7.616a.33.33 0 01-.256-.123.34.34 0 01-.07-.278L12.85 9.207a.334.334 0 01.326-.273h6.76c2.125 0 3.706.586 4.7 1.741 1 1.161 1.308 2.785.918 4.825a7.775 7.775 0 01-.813 2.295 7.66 7.66 0 01-1.496 1.903 6.544 6.544 0 01-2.462 1.498c-.887.293-2.025.442-3.383.442h-2.737l-.782 4.083a.333.333 0 01-.326.273h-3.516z" fill="#000"/><path d="M16.742 12.532h1.861c1.486 0 2.003.331 2.178.529.291.327.346 1.018.159 1.997-.21 1.096-.6 1.873-1.158 2.31-.572.447-1.5.673-2.762.673h-1.332l1.054-5.509zm3.193-3.935h-6.76a.667.667 0 00-.653.546L9.385 25.53a.682.682 0 00.14.558.66.66 0 00.512.245h3.516a.667.667 0 00.652-.546l.73-3.81h2.463c1.393 0 2.566-.155 3.486-.459a6.875 6.875 0 002.586-1.572 8.003 8.003 0 001.559-1.985 8.118 8.118 0 00.849-2.395c.411-2.147.077-3.867-.993-5.111-1.06-1.232-2.726-1.857-4.95-1.857zm-5.053 10.118h2.138c1.418 0 2.473-.27 3.167-.813.694-.542 1.162-1.447 1.405-2.716.233-1.217.127-2.077-.318-2.577-.445-.501-1.335-.751-2.67-.751h-2.41l-1.312 6.857zm5.053-9.443c2.033 0 3.517.542 4.45 1.626.932 1.084 1.213 2.596.84 4.539a7.406 7.406 0 01-.776 2.194 7.296 7.296 0 01-1.43 1.82 6.19 6.19 0 01-2.34 1.425c-.859.284-1.952.425-3.28.425h-3.012l-.834 4.357h-3.516l3.137-16.386h6.76z" fill="#fff"/><path d="M33.613 21.639a.33.33 0 01-.256-.123.34.34 0 01-.07-.279l1.388-7.25c.132-.69.1-1.184-.092-1.393-.117-.128-.468-.343-1.507-.343h-2.513l-1.745 9.115a.334.334 0 01-.326.273h-3.488a.33.33 0 01-.256-.123.341.341 0 01-.07-.279l3.137-16.386a.334.334 0 01.326-.272h3.488c.099 0 .193.045.256.122a.34.34 0 01.07.28l-.757 3.954h2.704c2.06 0 3.457.369 4.27 1.127.83.774 1.089 2.012.77 3.679l-1.46 7.625a.334.334 0 01-.325.273h-3.544z" fill="#000"/><path d="M31.628 4.24H28.14a.667.667 0 00-.652.546L24.35 21.172a.682.682 0 00.14.557.66.66 0 00.512.246h3.488a.667.667 0 00.652-.546l1.693-8.842h2.24c1.036 0 1.254.225 1.263.235.063.069.145.387.009 1.1l-1.388 7.25a.682.682 0 00.14.557.66.66 0 00.512.246h3.544a.667.667 0 00.652-.546l1.46-7.625c.342-1.79.049-3.133-.871-3.991-.878-.819-2.349-1.217-4.496-1.217h-2.3l.68-3.553a.682.682 0 00-.14-.558.66.66 0 00-.512-.245zm0 .674l-.834 4.357h3.107c1.955 0 3.304.346 4.046 1.038.742.693.965 1.815.668 3.366l-1.46 7.625h-3.543L35 14.05c.158-.825.1-1.387-.174-1.687-.275-.3-.858-.45-1.75-.45h-2.788L28.49 21.3h-3.488L28.14 4.914h3.488z" fill="#fff"/><path d="M44.459 18.378c1.335 0 2.333-.25 2.964-.744.624-.488 1.055-1.333 1.281-2.513.211-1.102.13-1.872-.238-2.287-.377-.425-1.193-.64-2.424-.64h-2.135l-1.184 6.184h1.736zm-6.983 7.616a.33.33 0 01-.257-.123.34.34 0 01-.07-.278l3.137-16.386a.334.334 0 01.327-.273h6.76c2.125 0 3.706.586 4.7 1.741 1 1.161 1.308 2.785.917 4.825a7.781 7.781 0 01-.813 2.295 7.663 7.663 0 01-1.496 1.903 6.544 6.544 0 01-2.462 1.498c-.886.293-2.024.442-3.383.442H42.1l-.781 4.083a.334.334 0 01-.327.273h-3.515z" fill="#000"/><path d="M44.182 12.532h1.862c1.486 0 2.002.331 2.177.529.291.327.346 1.018.16 1.997-.211 1.096-.6 1.873-1.159 2.31-.571.447-1.5.673-2.761.673h-1.333l1.054-5.509zm3.193-3.935h-6.76a.667.667 0 00-.653.546L36.826 25.53a.682.682 0 00.14.558.66.66 0 00.512.245h3.515a.667.667 0 00.653-.546l.729-3.81h2.464c1.393 0 2.566-.155 3.485-.459a6.875 6.875 0 002.586-1.572 8.001 8.001 0 001.56-1.985 8.115 8.115 0 00.848-2.395c.412-2.147.077-3.867-.993-5.111-1.06-1.232-2.725-1.857-4.95-1.857zm-5.053 10.118h2.139c1.417 0 2.473-.27 3.166-.813.694-.542 1.162-1.447 1.405-2.716.233-1.217.127-2.077-.317-2.577-.446-.501-1.336-.751-2.671-.751h-2.41l-1.312 6.857zm5.053-9.443c2.034 0 3.517.542 4.45 1.626.932 1.084 1.213 2.596.841 4.539a7.409 7.409 0 01-.777 2.194 7.299 7.299 0 01-1.43 1.82 6.19 6.19 0 01-2.34 1.425c-.859.284-1.952.425-3.28.425h-3.012l-.834 4.357h-3.515l3.136-16.386h6.76z" fill="#fff"/><defs><radialGradient id="paint0_radial_2959_13458" cx="0" cy="0" r="1" gradientUnits="userSpaceOnUse" gradientTransform="matrix(40.2007 0 0 40.8159 18.765 5.898)"><stop stop-color="#AEB2D5"/><stop offset=".3" stop-color="#AEB2D5"/><stop offset=".75" stop-color="#484C89"/><stop offset="1" stop-color="#484C89"/></radialGradient></defs></svg>