<svg width="49" height="47" fill="none" xmlns="http://www.w3.org/2000/svg"><path d="M8.782 3.422h26.627c4.368 0 7.91 3.527 7.91 7.877v26.52c0 4.35-3.542 7.877-7.91 7.877H8.782c-4.368 0-7.909-3.526-7.909-7.877V11.3c0-4.35 3.54-7.877 7.909-7.877z" fill="url(#paint0_radial_3001_12541)"/><path d="M8.782 4.01c-4.042 0-7.318 3.264-7.318 7.29v26.52c0 4.025 3.276 7.289 7.318 7.289h26.627c4.042 0 7.318-3.264 7.318-7.29V11.3c0-4.025-3.276-7.288-7.318-7.288H8.782zm0-1.176h26.627c4.694 0 8.5 3.79 8.5 8.466v26.52c0 4.675-3.806 8.465-8.5 8.465H8.782c-4.694 0-8.5-3.79-8.5-8.465V11.3c0-4.676 3.806-8.466 8.5-8.466z" fill="#2B2B2B"/><path opacity=".81" d="M8.98 4.976h26.075c3.75 0 6.79 3.027 6.79 6.762v15.737c0 3.735-3.04 6.762-6.79 6.762H8.981c-3.75 0-6.79-3.027-6.79-6.762V11.738c0-3.735 3.04-6.762 6.79-6.762z" fill="url(#paint1_linear_3001_12541)"/><path d="M18.91 26.094l-3.897 1.298c-.525-1.54-1.638-2.311-3.338-2.311-1.815 0-2.722.585-2.722 1.755 0 .466.17.86.509 1.184.339.324 1.105.604 2.299.842 1.996.4 3.458.804 4.384 1.213.926.41 1.707 1.068 2.342 1.976.635.909.953 1.924.953 3.047 0 1.76-.68 3.282-2.041 4.566-1.361 1.284-3.38 1.926-6.054 1.926-2.005 0-3.712-.454-5.121-1.363-1.409-.908-2.338-2.256-2.787-4.045l4.241-.956c.478 1.817 1.805 2.726 3.983 2.726 1.05 0 1.833-.203 2.35-.607.515-.404.773-.887.773-1.448 0-.571-.234-1.013-.702-1.327-.468-.314-1.37-.609-2.708-.885-2.493-.514-4.269-1.215-5.33-2.105-1.06-.889-1.59-2.19-1.59-3.902 0-1.731.633-3.192 1.899-4.38 1.265-1.19 2.982-1.784 5.15-1.784 3.84 0 6.309 1.527 7.407 4.58zm15.353 8.704h-9.312c-.009.224-.014.447-.014.67 0 1.028.274 1.803.823 2.327.55.523 1.206.784 1.97.784 1.423 0 2.278-.756 2.565-2.268l3.868.285c-1.08 3.33-3.271 4.994-6.576 4.994-1.442 0-2.667-.288-3.675-.863-1.008-.576-1.838-1.415-2.493-2.518-.654-1.104-.981-2.426-.981-3.967 0-2.293.657-4.143 1.97-5.551 1.313-1.408 3.001-2.112 5.064-2.112 1.863 0 3.46.654 4.792 1.962 1.333 1.308 2 3.394 2 6.257zm-9.326-2.468h5.143c-.134-1.98-.95-2.968-2.45-2.968-1.605 0-2.502.989-2.693 2.968z" fill="#EEE"/><path d="M11.503 21.852c-2.086 0-3.72.566-4.917 1.692-1.198 1.125-1.792 2.496-1.792 4.134 0 1.618.49 2.823 1.47 3.644 1.008.847 2.736 1.529 5.179 2.032 1.377.285 2.314.59 2.828.936.563.377.852.925.852 1.607 0 .67-.309 1.248-.903 1.714-.584.458-1.44.679-2.56.679-2.198 0-3.63-.898-4.217-2.664l-3.585.808c.455 1.541 1.304 2.706 2.55 3.51 1.351.871 2.994 1.308 4.937 1.308 2.595 0 4.529-.615 5.82-1.833 1.294-1.222 1.935-2.655 1.935-4.32a4.857 4.857 0 00-.892-2.854c-.6-.86-1.333-1.477-2.2-1.86-.9-.397-2.34-.796-4.314-1.191-1.254-.25-2.067-.548-2.467-.93a1.911 1.911 0 01-.614-1.428c0-1.395 1.083-2.093 3.062-2.093 1.724 0 2.924.754 3.54 2.226l3.251-1.084c-1.101-2.695-3.4-4.033-6.963-4.033zM14.8 27.82l-.109-.319c-.477-1.401-1.46-2.082-3.016-2.082-1.65 0-2.383.473-2.383 1.417 0 .374.132.68.404.94.278.266.998.529 2.132.755 2.018.404 3.5.814 4.454 1.235.985.435 1.814 1.134 2.484 2.093a5.53 5.53 0 011.013 3.24c0 1.854-.72 3.464-2.147 4.81-1.431 1.35-3.532 2.02-6.287 2.02-2.068 0-3.84-.472-5.306-1.417-1.483-.957-2.462-2.378-2.931-4.247l-.085-.336 4.9-1.104.083.316c.437 1.66 1.624 2.473 3.654 2.473.982 0 1.693-.184 2.14-.534.437-.343.644-.73.644-1.183 0-.459-.178-.796-.552-1.047-.421-.282-1.29-.566-2.587-.834-2.543-.523-4.368-1.244-5.48-2.177-1.141-.958-1.71-2.354-1.71-4.16 0-1.825.671-3.374 2.005-4.627 1.332-1.253 3.133-1.876 5.383-1.876 3.976 0 6.577 1.608 7.726 4.804l.117.325L14.8 27.82zm17.226.962c-1.269-1.245-2.78-1.864-4.554-1.864-1.97 0-3.568.666-4.816 2.003-1.252 1.342-1.879 3.11-1.879 5.32 0 1.484.313 2.747.934 3.796.626 1.054 1.415 1.851 2.37 2.397.953.544 2.12.818 3.506.818 3.016 0 5.035-1.433 6.111-4.35l-3.135-.232c-.374 1.475-1.339 2.248-2.833 2.248a3.095 3.095 0 01-2.204-.879c-.623-.593-.93-1.457-.93-2.57 0-.195.006-.422.015-.683l.012-.326h9.297c-.05-2.605-.687-4.493-1.894-5.678zm-6.75 6.687c0 .942.243 1.628.719 2.081a2.415 2.415 0 001.735.692c1.255 0 1.974-.636 2.23-1.994l.057-.297 4.601.34-.132.41c-1.124 3.465-3.444 5.228-6.9 5.228-1.498 0-2.78-.302-3.843-.909-1.06-.605-1.933-1.487-2.616-2.64-.687-1.158-1.029-2.54-1.029-4.138 0-2.374.686-4.307 2.06-5.78 1.38-1.479 3.158-2.22 5.314-2.22 1.952 0 3.635.688 5.03 2.059 1.407 1.38 2.1 3.552 2.1 6.497v.338H25.28a13.37 13.37 0 00-.004.333zm-.713-2.801l.035-.37c.207-2.14 1.236-3.274 3.032-3.274 1.7 0 2.644 1.143 2.788 3.283l.025.361h-5.88zm5.145-.676c-.188-1.567-.869-2.292-2.078-2.292-1.314 0-2.069.73-2.31 2.292h4.387z" fill="#232323"/><path d="M20.484 16.67l7.986 8.484L47.828 5.191 45.166.525 29.002 17.413l-5.536-5.196-2.982 4.454z" fill="url(#paint2_linear_3001_12541)"/><path d="M20.796 16.012l7.879 5.696 18.494-17.82L45.316.512l-16.27 17.205-5.43-4.984-2.82 3.279z" fill="url(#paint3_radial_3001_12541)"/><path d="M45.235-.037l3.013 5.281-19.783 20.4-8.413-8.938 3.353-5.01 5.584 5.24L45.235-.037zm-16.762 24.7L47.407 5.14l-2.31-4.051L29.013 17.89l-5.49-5.153-2.609 3.898 7.558 8.029z" fill="#000"/><defs><radialGradient id="paint0_radial_3001_12541" cx="0" cy="0" r="1" gradientUnits="userSpaceOnUse" gradientTransform="matrix(44.5797 0 0 44.4007 2.437 42.958)"><stop stop-color="#212121"/><stop offset="1" stop-color="#B8B8B8"/></radialGradient><radialGradient id="paint3_radial_3001_12541" cx="0" cy="0" r="1" gradientUnits="userSpaceOnUse" gradientTransform="matrix(11.033 0 0 10.9886 23.361 10.811)"><stop stop-color="#fff"/><stop offset="1" stop-color="#fff" stop-opacity="0"/></radialGradient><linearGradient id="paint1_linear_3001_12541" x1="22.366" y1="44.38" x2="22.366" y2="4.976" gradientUnits="userSpaceOnUse"><stop stop-color="#4B4B4B"/><stop offset="1" stop-color="#fff"/></linearGradient><linearGradient id="paint2_linear_3001_12541" x1="29.069" y1="21.204" x2="34.818" y2="7.28" gradientUnits="userSpaceOnUse"><stop stop-color="#26761E"/><stop offset="1" stop-color="#2CB134" stop-opacity=".996"/></linearGradient></defs></svg>