<svg width="36" height="49" fill="none" xmlns="http://www.w3.org/2000/svg"><path d="M1.07 9.879l.006.429c.003.236.686 8.047 1.519 17.358l1.513 16.93 6.803 1.904c3.742 1.048 6.88 1.91 6.974 1.917.095.006 3.275-.847 7.067-1.897 6.08-1.684 6.9-1.937 6.944-2.146.06-.29 3.038-33.878 3.035-34.238l-.002-.257H1.07z" fill="#fff"/><path d="M10.966 46.614l-6.863-1.918-.09-.508C3.933 43.737.957 10.495.957 10.056c0-.159 1.738-.177 17.044-.177 16.156 0 17.043.01 17.042.2-.005.82-3.086 34.502-3.162 34.569-.095.084-13.38 3.785-13.823 3.85-.126.02-3.317-.829-7.092-1.884zm11.362-6.778c2.307-.637 4.228-1.19 4.269-1.23.04-.04.31-2.775.6-6.078.289-3.303.555-6.224.59-6.492l.065-.486h-9.966v4.232h5.381l-.053.258c-.03.141-.144 1.358-.255 2.703-.117 1.425-.255 2.5-.332 2.578-.073.072-1.169.408-2.436.745l-2.305.615v2.156c0 1.471.04 2.155.124 2.155.068 0 2.012-.52 4.318-1.156zm5.459-16.945c-.076-.561-.75-8.079-.75-8.362 0-.172-.395-.189-4.518-.189h-4.518v4.426l2.03.078c1.117.043 2.292.109 2.612.146l.581.067.141 1.73c.078.953.17 1.925.206 2.16l.064.43h4.217l-.065-.486z" fill="#EAEBEC"/><path d="M10.911 46.5l-6.803-1.904-1.513-16.93c-.833-9.311-1.516-17.122-1.52-17.358l-.005-.43h33.86l.001.258c.003.36-2.974 33.948-3.035 34.238-.043.209-.864.462-6.944 2.146-3.792 1.05-6.972 1.903-7.067 1.897-.094-.007-3.233-.87-6.974-1.917zm11.421-6.584c2.352-.653 4.31-1.242 4.35-1.308.041-.066.322-2.941.625-6.389.302-3.448.575-6.359.605-6.469.052-.189-.348-.2-7.25-.2h-7.306l.31-3.289c.172-1.808.316-3.293.321-3.299.005-.005 1.077-.04 2.383-.076 2.14-.059 6.554.112 6.702.26.055.055.418 3.616.418 4.102 0 .24.033.243 2.217.243h2.216l-.052-.486a720.71 720.71 0 01-.417-4.604l-.365-4.118-8.548-.03c-6.8-.023-8.549 0-8.55.115 0 .079-.05.581-.11 1.116C9.735 16.778 8.62 29.28 8.62 29.626v.27h14.547l-.065.43a84.015 84.015 0 00-.25 2.66c-.103 1.226-.22 2.262-.26 2.3-.107.102-4.386 1.246-4.653 1.243-.124-.001-1.229-.277-2.456-.613l-2.23-.61-.082-.96a179.66 179.66 0 00-.152-1.675l-.07-.715H8.62l.005.429c.009.802.529 6.205.604 6.28.088.088 8.4 2.425 8.656 2.434.095.003 2.096-.529 4.447-1.182z" fill="#F0BE25"/><path d="M10.911 46.5l-6.803-1.904-1.513-16.93c-.833-9.311-1.516-17.122-1.52-17.358l-.005-.43h33.86l.001.258c.003.36-2.974 33.948-3.035 34.238-.043.209-.864.462-6.944 2.146-3.792 1.05-6.972 1.903-7.067 1.897-.094-.007-3.233-.87-6.974-1.917zm12.686-2.548c2.993-.825 5.497-1.559 5.566-1.63.107-.11 2.692-28.436 2.681-29.383l-.003-.315H18v1.602h-4.004c-3.126 0-4.004.031-4.004.143-.001.078-.05.58-.111 1.115C9.735 16.778 8.62 29.28 8.62 29.626v.27H18v3.318c0 2.579-.032 3.317-.143 3.315-.079-.001-1.147-.277-2.374-.613l-2.23-.61-.082-.96a179.66 179.66 0 00-.152-1.675l-.07-.715H8.62l.005.429c.013 1.227.544 6.235.669 6.312.075.047 2.065.618 4.421 1.27L18 41.153v2.15c0 1.183.035 2.15.078 2.15s2.527-.675 5.52-1.5zm-9.942-21.66c.164-1.792.321-3.278.349-3.303.027-.025.937-.07 2.022-.1L18 18.836v6.715h-4.644l.299-3.258z" fill="#E4A126"/><path d="M11.822 5.819V4.732h3.089V.5h2.173v6.406h-5.262V5.819zm6.292.229V5.19h1.43c.786 0 1.43-.03 1.43-.065s-.644-.762-1.43-1.614l-1.43-1.55V.5h5.948v1.709l-1.396.032-1.397.032 1.454 1.565 1.453 1.565v1.502h-6.062v-.857z" fill="#0E0E0F"/></svg>