<svg width="180" height="40" viewBox="0 0 180 40" fill="none" xmlns="http://www.w3.org/2000/svg">
<path d="M24.1935 -1.52588e-05L0 23.8095H24.1935V-1.52588e-05Z" fill="#1E2B40"/>
<path d="M24.1935 23.8095L0 0H24.1935V23.8095Z" fill="#06ED01"/>
<path d="M41.2258 32C40.6451 31.7143 39.8709 31.5238 39 31.5238H36.7742V39.0476H39.0968C39.9677 39.0476 40.6451 38.8571 41.3226 38.5714C41.9032 38.2857 42.3871 37.8095 42.7742 37.2381C43.0645 36.6667 43.258 36 43.258 35.3333C43.258 34.5714 43.0645 34 42.7742 33.4286C42.3871 32.7619 41.9032 32.2857 41.2258 32ZM41.9032 36.7619C41.6129 37.2381 41.2258 37.5238 40.7419 37.8095C40.258 38.0952 39.6774 38.2857 39 38.2857H37.6451V32.381H39C39.6774 32.381 40.258 32.4762 40.7419 32.7619C41.2258 32.9524 41.6129 33.3333 41.9032 33.7143C42.1935 34.1905 42.2903 34.6667 42.2903 35.2381C42.2903 35.8095 42.1935 36.3809 41.9032 36.7619ZM45.0968 39.0476H45.9677V31.5238H45.0968V39.0476ZM51.7742 36H54.3871V37.0476C54.0968 37.4286 53.8064 37.8095 53.3226 38C52.8387 38.2857 52.3548 38.381 51.8709 38.381C51.2903 38.381 50.7097 38.2857 50.3226 38C49.8387 37.7143 49.4516 37.3333 49.258 36.8571C48.9677 36.381 48.8709 35.8095 48.8709 35.2381C48.8709 34.6667 48.9677 34.1905 49.258 33.7143C49.5484 33.2381 49.8387 32.8571 50.3226 32.5714C50.8064 32.2857 51.2903 32.1905 51.8709 32.1905C52.3548 32.1905 52.8387 32.2857 53.2258 32.4762C53.6129 32.6667 54 33.0476 54.2903 33.4286L54.9677 32.8571C54.5806 32.381 54.1935 32 53.6129 31.7143C53.0322 31.4286 52.4516 31.3333 51.8709 31.3333C51.0967 31.3333 50.4193 31.5238 49.8387 31.8095C49.258 32.1905 48.7742 32.6667 48.3871 33.2381C48 33.8095 47.9032 34.4762 47.9032 35.2381C47.9032 36 48.0967 36.6667 48.3871 37.2381C48.7742 37.8095 49.258 38.2857 49.8387 38.6667C50.4193 39.0476 51.0967 39.1429 51.8709 39.1429C52.6451 39.1429 53.3226 38.9524 53.9032 38.5714C54.4838 38.1905 54.9677 37.7143 55.3548 37.1429V35.2381H51.8709V36H51.7742ZM57.1935 39.0476H58.0645V31.5238H57.1935V39.0476ZM65.9032 31.5238H59.6129V32.2857H62.3226V39.0476H63.1935V32.2857H65.9032V31.5238ZM69.1935 31.4286L65.8064 39.0476H66.7742L67.4516 37.5238H71.2258L71.9032 39.0476H72.8709L69.4838 31.4286H69.1935ZM67.8387 36.7619L69.3871 33.0476L70.9355 36.7619H67.8387ZM75.3871 31.5238H74.5161V39.0476H79.0645V38.2857H75.3871V31.5238ZM85.7419 37.4286L83.2258 31.5238H82.258L85.5484 39.2381H85.8387L89.129 31.5238H88.1613L85.7419 37.4286ZM90.8709 39.0476H91.7419V31.5238H90.8709V39.0476ZM98.6129 32C98.0322 31.7143 97.258 31.5238 96.3871 31.5238H94.0645V39.0476H96.3871C97.258 39.0476 97.9355 38.8571 98.6129 38.5714C99.1935 38.2857 99.6774 37.8095 100.064 37.2381C100.355 36.6667 100.548 36 100.548 35.3333C100.548 34.5714 100.355 34 100.064 33.4286C99.6774 32.7619 99.1935 32.2857 98.6129 32ZM99.1935 36.7619C98.9032 37.2381 98.5161 37.5238 98.0322 37.8095C97.5484 38.0952 96.9677 38.1905 96.2903 38.1905H94.9355V32.2857H96.2903C96.9677 32.2857 97.5484 32.381 98.0322 32.6667C98.5161 32.9524 98.9032 33.2381 99.1935 33.7143C99.4838 34.1905 99.5806 34.6667 99.5806 35.2381C99.5806 35.8095 99.4838 36.3809 99.1935 36.7619ZM103.258 35.4286H106.355V34.6667H103.258V32.381H107.226V31.619H102.29V39.0476H107.419V38.2857H103.258V35.4286ZM114.484 31.9048C113.903 31.5238 113.226 31.4286 112.452 31.4286C111.677 31.4286 111.097 31.619 110.419 31.9048C109.839 32.2857 109.355 32.7619 108.968 33.3333C108.581 33.9048 108.484 34.5714 108.484 35.3333C108.484 36.0952 108.677 36.6667 108.968 37.3333C109.355 37.9048 109.839 38.381 110.419 38.7619C111 39.1429 111.677 39.2381 112.452 39.2381C113.129 39.2381 113.806 39.0476 114.484 38.7619C115.064 38.381 115.548 37.9048 115.935 37.3333C116.323 36.7619 116.516 36.0952 116.516 35.3333C116.516 34.5714 116.323 33.9048 115.935 33.3333C115.548 32.7619 115.064 32.2857 114.484 31.9048ZM115.161 36.8571C114.871 37.3333 114.581 37.7143 114.097 38C113.613 38.2857 113.129 38.381 112.548 38.381C111.968 38.381 111.484 38.2857 111 38C110.516 37.7143 110.129 37.3333 109.935 36.8571C109.645 36.381 109.548 35.9048 109.548 35.2381C109.548 34.6667 109.645 34.0952 109.935 33.7143C110.226 33.2381 110.516 32.8571 111 32.5714C111.484 32.2857 111.968 32.1905 112.548 32.1905C113.129 32.1905 113.613 32.2857 114.097 32.5714C114.581 32.8571 114.968 33.2381 115.161 33.7143C115.452 34.1905 115.548 34.6667 115.548 35.2381C115.548 35.8095 115.355 36.381 115.161 36.8571ZM125.323 35.7143L122.129 31.4286H121.839V39.0476H122.71V33.619L125.129 36.9524H125.419L127.839 33.7143V39.0476H128.71V31.4286H128.419L125.323 35.7143ZM133.839 31.4286L130.452 39.0476H131.419L132.097 37.5238H135.871L136.548 39.0476H137.516L134.226 31.3333H133.839V31.4286ZM132.484 36.7619L134.032 33.0476L135.581 36.7619H132.484ZM140.903 32.5714C141.387 32.2857 141.871 32.1905 142.452 32.1905C142.935 32.1905 143.419 32.2857 143.903 32.5714C144.29 32.7619 144.677 33.1429 144.968 33.5238L145.645 32.9524C145.355 32.4762 144.871 32.0952 144.29 31.8095C143.71 31.5238 143.129 31.3333 142.452 31.3333C141.677 31.3333 141.097 31.5238 140.419 31.8095C139.839 32.1905 139.355 32.6667 138.968 33.2381C138.581 33.8095 138.484 34.4762 138.484 35.2381C138.484 36 138.677 36.6667 138.968 37.2381C139.355 37.8095 139.839 38.2857 140.419 38.6667C141 39.0476 141.677 39.1429 142.452 39.1429C143.129 39.1429 143.71 38.9524 144.29 38.6667C144.871 38.3809 145.258 38 145.645 37.5238L144.968 36.9524C144.677 37.3333 144.29 37.7143 143.903 37.9048C143.516 38.0952 143.032 38.2857 142.452 38.2857C141.871 38.2857 141.387 38.1905 140.903 37.9048C140.419 37.619 140.032 37.2381 139.839 36.7619C139.645 36.2857 139.452 35.8095 139.452 35.2381C139.452 34.6667 139.548 34.0952 139.839 33.619C140.129 33.1429 140.419 32.8571 140.903 32.5714ZM152.71 34.6667H148.452V31.5238H147.581V39.0476H148.452V35.4286H152.71V39.0476H153.581V31.5238H152.71V34.6667ZM155.903 39.0476H156.774V31.5238H155.903V39.0476ZM164.323 37.1429L159.484 31.3333H159.194V39.0476H160.064V33.4286L164.903 39.2381H165.194V31.5238H164.323V37.1429ZM171.581 35.4286V34.6667H168.484V32.381H172.452V31.619H167.516V39.0476H172.548V38.2857H168.387V35.4286H171.581ZM178.742 35.9048C178.452 35.619 177.968 35.3333 177.387 35.0476L176.516 34.6667C176.226 34.4762 175.935 34.381 175.839 34.2857C175.645 34.1905 175.548 34.0952 175.452 33.9048C175.355 33.7143 175.258 33.619 175.258 33.3333C175.258 32.9524 175.355 32.6667 175.645 32.4762C175.935 32.2857 176.226 32.1905 176.613 32.1905C177 32.1905 177.29 32.2857 177.581 32.4762C177.871 32.6667 178.161 32.8571 178.355 33.1429L179.032 32.6667C178.742 32.2857 178.452 32 178.064 31.7143C177.677 31.5238 177.194 31.3333 176.71 31.3333C176.323 31.3333 175.935 31.4286 175.548 31.619C175.161 31.8095 174.871 32 174.677 32.2857C174.484 32.5714 174.387 32.9524 174.387 33.3333C174.387 33.8095 174.581 34.2857 174.871 34.5714C175.161 34.8571 175.645 35.1429 176.129 35.4286L177 35.8095C177.29 36 177.581 36.0952 177.677 36.1905C177.871 36.2857 177.968 36.381 178.064 36.5714C178.161 36.7619 178.258 36.9524 178.258 37.1429C178.258 37.5238 178.161 37.8095 177.871 38.0952C177.581 38.2857 177.194 38.4762 176.71 38.4762C175.839 38.4762 175.161 38 174.581 37.1429L173.903 37.619C174.194 38.0952 174.581 38.4762 175.064 38.7619C175.548 39.0476 176.129 39.2381 176.71 39.2381C177.194 39.2381 177.581 39.1429 177.968 38.9524C178.355 38.7619 178.645 38.5714 178.839 38.1905C179.032 37.9048 179.129 37.5238 179.129 37.0476C179.129 36.5714 179.032 36.1905 178.742 35.9048Z" fill="#1E2B40"/>
<path d="M67.258 0H36.7742V23.8095H67.258C73.9355 23.8095 79.3548 18.4762 79.3548 11.9048C79.3548 5.33333 73.9355 0 67.258 0ZM70.6451 12.8571C70.6451 15.7143 68.2258 18.0952 65.3226 18.0952H45.4838V5.71429H65.3226C68.2258 5.71429 70.6451 8.09524 70.6451 10.9524V12.8571Z" fill="#1E2B40"/>
<path d="M117.097 0L103.548 13.3333L90 0H79.3548L103.548 23.8095L127.742 0H117.097Z" fill="#1E2B40"/>
<path d="M168.387 0L154.839 13.3333L141.29 0H130.645L154.839 23.8095L179.032 0H168.387Z" fill="#1E2B40"/>
<path d="M179.032 0H170.323V23.8095H179.032V0Z" fill="#1E2B40"/>
<path d="M139.355 0H130.645V23.8095H139.355V0Z" fill="#1E2B40"/>
</svg>
