<svg width="51" height="39" fill="none" xmlns="http://www.w3.org/2000/svg"><path fill-rule="evenodd" clip-rule="evenodd" d="M2.932 20.774c.309.607.928 2.325.928 3.134 1.134-.303 8.043-3.235 8.043.91 0 1.617-1.444 2.426-2.578 3.235-3.61 2.628-6.909 5.358-6.909 10.412h14.437c0-4.549 1.65-3.639-9.075-3.639 2.372-4.246 8.56-5.56 8.56-10.008 0-2.022 0-3.134-1.96-4.55-3.094-2.122-8.662-.91-11.446.506z" fill="#0066A1"/><path fill-rule="evenodd" clip-rule="evenodd" d="M21.183 30.582c.207-.708 1.135-1.82 1.65-2.427l1.96-2.325v4.752h-3.61zm-5.156 1.213v2.123h8.766v4.549h4.228v-4.55h2.887c0-3.942.619-3.335-2.887-3.335V19.158h-3.197c-.619 1.011-1.547 2.123-2.372 3.134-.516.505-.722.91-1.237 1.415-.722.91-6.188 7.481-6.188 8.088zm21.245-6.471c0-5.46 7.94-7.279 10.209-2.123 2.784 6.47-7.013 10.311-9.694 4.246-.206-.405-.515-1.618-.515-2.123zm-1.238-.203c0 2.123.516 3.337 1.753 4.65 3.713 3.842 11.447 2.124 11.447-4.65 0-8.29-13.2-8.29-13.2 0z" fill="#0066A1"/><path fill-rule="evenodd" clip-rule="evenodd" d="M41.911 26.031h3.61v-1.415h-2.166v-2.427H41.91v3.842z" fill="#0066A1"/><path fill-rule="evenodd" clip-rule="evenodd" d="M6.024 13.799H3.755v-3.437h1.856c3.197 0 2.578 3.437.413 3.437zM4.58 7.834h-.825V4.397c1.547 0 3.094 0 3.094 2.022 0 .708.103 0-.207.506-.206.303-.206.303-.515.505-.413.202-1.031.404-1.547.404zM.455 16.427c3.3 0 7.322.607 9.281-1.213 1.444-1.415 1.96-3.64.619-5.459-.413-.505-1.135-1.01-1.856-1.112.309-.505 1.65-1.516 1.65-2.83 0-4.954-6.29-4.044-9.694-4.044v14.658zm42.589-5.256c-.722.91-3.713 4.55-3.919 5.257h3.3l1.547-2.123c.412-.505.31-.202.515-.91.722.203 2.372 2.629 2.475 3.033h3.506c-1.237-1.82-2.68-3.437-3.918-5.257.515-.91 1.34-1.92 2.062-2.73.31-.505.619-.909 1.031-1.414.103-.101.516-.708.516-.708.516-.809-.516-.505-2.99-.505l-2.475 3.234c-.413-.606-.722-1.01-1.135-1.617-.722-.91-.722-1.516-1.96-1.617h-2.474c.206.505 1.444 2.224 1.856 2.729.413.505.619.809 1.031 1.314.31.405.722.91 1.032 1.314zM19.223 3.386v2.628H17.16v2.427h2.063c0 2.628-.516 6.267.721 7.48 1.135 1.011 3.3.91 4.744.506.413-.101.516-.202 1.031-.404 0-.91-.412-1.517-.825-2.224-2.475.202-2.578 2.224-2.578-5.358h2.578c.103-.81.516-1.719.619-2.427h-3.197V2.577c-.515.202-2.475.708-3.093.809zm10.416 3.64c0-.606-.104-.606-.207-1.01h-2.887v10.412h3.3V9.25c1.34-.91 1.96-1.213 3.3-.404.412-.708 1.03-1.92 1.03-2.83-2.68-.708-2.061-.607-4.536 1.01zM35 16.427h3.094V5.813H35v10.614zm-22.17 0h3.094V5.813H12.83v10.614zM12.417 2.78c0 2.426 3.919 2.426 3.919 0 0-2.427-3.919-2.427-3.919 0zm22.172 0c0 2.426 3.919 2.426 3.919 0 0-2.427-3.92-2.427-3.92 0z" fill="#2FC7F7"/></svg>