<svg width="48" height="51" fill="none" xmlns="http://www.w3.org/2000/svg"><g clip-path="url(#clip0_2959_13496)" fill="#464342"><path d="M3.412 25.5c0 8.404 4.736 15.667 11.604 19.109l-9.821-27.75A21.713 21.713 0 003.412 25.5zM37.9 24.428c0-2.624-.913-4.44-1.697-5.855-1.044-1.75-2.022-3.23-2.022-4.98 0-1.95 1.436-3.768 3.457-3.768.092 0 .178.012.267.017-3.663-3.46-8.543-5.573-13.903-5.573-7.193 0-13.522 3.805-17.203 9.57.483.015.938.025 1.325.025 2.153 0 5.487-.27 5.487-.27 1.11-.067 1.24 1.614.132 1.75 0 0-1.115.135-2.357.202l7.498 22.998 4.506-13.935-3.208-9.064c-1.108-.067-2.159-.202-2.159-.202-1.11-.067-.98-1.817.13-1.75 0 0 3.4.27 5.424.27 2.153 0 5.487-.27 5.487-.27 1.11-.067 1.24 1.614.132 1.75 0 0-1.118.135-2.357.202l7.44 22.824 2.054-7.077c.89-2.937 1.568-5.046 1.568-6.864z"/><path d="M24.362 27.355l-6.177 18.512a20.008 20.008 0 0012.653-.339 1.893 1.893 0 01-.146-.292l-6.33-17.88zm17.705-12.042c.088.677.138 1.403.138 2.184 0 2.154-.39 4.576-1.565 7.605l-6.29 18.75c6.122-3.68 10.239-10.519 10.239-18.351a21.65 21.65 0 00-2.522-10.188z"/><path d="M24 .75C10.768.75 0 11.852 0 25.5s10.767 24.75 24 24.75c13.234 0 24.003-11.102 24.003-24.75S37.234.75 24 .75zm0 48.365c-12.626 0-22.9-10.594-22.9-23.616C1.1 12.48 11.374 1.885 24 1.885c12.627 0 22.9 10.593 22.9 23.614 0 13.022-10.273 23.616-22.9 23.616z"/></g><defs><clipPath id="clip0_2959_13496"><path fill="#fff" transform="translate(0 .75)" d="M0 0h48v49.5H0z"/></clipPath></defs></svg>