<svg width="64" height="33" fill="none" xmlns="http://www.w3.org/2000/svg"><g clip-path="url(#clip0_2959_12981)"><path d="M.5 29.975h2.075v-8.26l3.214 7.204c.379.868.898 1.18 1.915 1.18 1.018 0 1.517-.308 1.897-1.18l3.213-7.204v8.264h2.076v-8.25c0-.805-.32-1.195-.979-1.395-1.576-.497-2.634-.067-3.113 1.006l-3.153 7.11-3.054-7.113c-.459-1.074-1.536-1.503-3.113-1.007-.659.202-.978.59-.978 1.395v8.25zm16.115-6.726h2.075v4.553c-.02.248.078.829 1.215.846.58.01 4.477 0 4.514 0v-5.421h2.08c.009 0-.003 7.392-.003 7.424.012 1.823-2.243 2.219-3.282 2.25H16.66v-1.409h6.565c1.336-.143 1.178-.812 1.178-1.037v-.55h-4.41c-2.053-.018-3.36-.921-3.376-1.96-.002-.093.044-4.65-.002-4.696z" fill="#00618A"/><path d="M28.098 29.976h5.967c.698 0 1.377-.147 1.916-.403.898-.415 1.337-.979 1.337-1.717v-1.529c0-.604-.498-1.167-1.476-1.542-.519-.202-1.158-.309-1.776-.309H31.55c-.838 0-1.237-.255-1.337-.818-.02-.067-.02-.124-.02-.188v-.952c0-.054 0-.108.02-.175.1-.43.32-.55 1.058-.62.06 0 .14-.014.2-.014h5.927v-1.395H31.57c-.838 0-1.277.054-1.676.175-1.239.389-1.778 1.01-1.778 2.082v1.221c0 .94 1.058 1.744 2.834 1.932.2.013.4.026.599.026h2.155c.08 0 .16 0 .22.014.658.054.938.174 1.137.416.123.124.16.242.16.372v1.22c0 .148-.1.336-.299.497-.18.161-.479.268-.878.295-.08 0-.14.014-.22.014h-5.727v1.398zm22.168-2.428c0 1.436 1.057 2.24 3.193 2.401.199.016.399.025.598.027h5.409V28.58h-5.449c-1.217 0-1.676-.309-1.676-1.047v-7.217h-2.075v7.232zm-11.623.073v-4.974c0-1.263.88-2.03 2.62-2.271a3.95 3.95 0 01.56-.04h3.939c.194 0 .388.013.58.04 1.74.241 2.62 1.008 2.62 2.271v4.974c0 1.025-.374 1.573-1.235 1.931l2.044 1.86h-2.41l-1.654-1.505-1.665.107h-2.22c-.38 0-.78-.054-1.22-.175-1.322-.363-1.96-1.062-1.96-2.218zm2.24-.124c0 .067.02.134.04.215.123.578.66.9 1.476.9h1.886l-1.732-1.576h2.41l1.507 1.375a.98.98 0 00.523-.672c.02-.067.02-.134.02-.202V22.77c0-.054 0-.124-.02-.189-.123-.537-.66-.846-1.46-.846h-3.13c-.923 0-1.52.403-1.52 1.035v4.73-.003z" fill="#E48E00"/><path d="M61.294 18.004c-1.275-.035-2.25.084-3.083.438-.237.101-.615.104-.654.403.13.138.151.343.254.512.2.325.536.76.835.987.327.25.664.516 1.016.732.624.384 1.322.604 1.923.988.354.226.706.512 1.052.768.17.126.286.323.507.402v-.037c-.117-.15-.147-.355-.254-.511l-.471-.476c-.462-.62-1.047-1.159-1.669-1.61-.496-.359-1.607-.844-1.814-1.426l-.036-.037c.352-.04.764-.168 1.089-.256.545-.147 1.033-.11 1.596-.256l.762-.22v-.146c-.285-.294-.488-.684-.798-.95-.812-.698-1.7-1.395-2.612-1.976-.506-.323-1.132-.532-1.669-.805-.18-.092-.497-.14-.616-.293-.282-.362-.436-.822-.653-1.24a47.376 47.376 0 01-1.306-2.78c-.276-.634-.456-1.26-.798-1.83-1.648-2.73-3.421-4.378-6.167-5.997-.585-.345-1.288-.481-2.032-.659l-1.197-.073c-.244-.102-.498-.403-.726-.55-.91-.579-3.244-1.84-3.918-.185-.426 1.046.636 2.067 1.016 2.597.266.372.607.789.797 1.207.126.275.148.55.255.842.263.713.493 1.495.834 2.158.172.335.362.688.58.987.134.184.363.265.4.55-.225.315-.238.806-.364 1.206-.567 1.803-.353 4.043.472 5.377.253.41.849 1.288 1.669.951.716-.294.553-1.206.762-2.011.046-.183.017-.317.109-.44v.037l.653 1.317c.483.785 1.34 1.605 2.068 2.159.376.286.676.783 1.16.95v-.036h-.036c-.094-.149-.242-.21-.363-.329a8.39 8.39 0 01-.834-.95c-.662-.906-1.246-1.896-1.778-2.927-.254-.492-.475-1.035-.689-1.536-.082-.194-.081-.485-.254-.585-.234.367-.58.663-.762 1.097-.29.693-.328 1.537-.435 2.414-.064.023-.035.007-.073.037-.505-.123-.683-.648-.87-1.098-.475-1.138-.563-2.97-.145-4.28.107-.338.596-1.405.399-1.718-.095-.313-.406-.497-.58-.732a5.779 5.779 0 01-.581-1.024c-.39-.887-.57-1.883-.98-2.78-.195-.429-.526-.862-.798-1.24-.3-.423-.637-.734-.87-1.241-.083-.182-.196-.472-.073-.659a.29.29 0 01.218-.22c.21-.163.797.055 1.016.147.581.244 1.067.476 1.56.805.237.155.476.464.762.549h.326c.51.118 1.082.037 1.56.183.843.258 1.598.66 2.285 1.097 2.091 1.331 3.8 3.226 4.97 5.49.188.363.27.711.435 1.097.335.775.756 1.58 1.089 2.34.332.76.655 1.527 1.124 2.159.247.332 1.2.51 1.633.694.303.13.8.265 1.088.44.55.333 1.081.731 1.597 1.097.257.183 1.049.584 1.088.915v-.01z" fill="#00618A"/><path fill-rule="evenodd" clip-rule="evenodd" d="M45.079 4.069a2.56 2.56 0 00-.653.073v.037h.036c.127.263.35.432.508.658l.363.768.036-.036c.224-.16.328-.415.326-.805-.09-.096-.103-.216-.181-.33-.104-.152-.308-.238-.436-.366v.001z" fill="#00618A"/><path fill-rule="evenodd" clip-rule="evenodd" d="M60.441 28.542c0 .921.722 1.542 1.53 1.542.807 0 1.53-.62 1.53-1.542 0-.921-.723-1.542-1.53-1.542-.808 0-1.53.62-1.53 1.542zm2.717 0c0 .7-.53 1.221-1.188 1.221-.664 0-1.187-.522-1.187-1.22 0-.7.522-1.222 1.187-1.222.657 0 1.188.522 1.188 1.221zm-.776.88h.343l-.502-.773c.27-.029.473-.16.473-.481 0-.358-.224-.505-.656-.505h-.682v1.76h.294v-.761h.273l.457.76zm-.73-1.008v-.505h.339c.175 0 .387.033.387.239 0 .246-.191.267-.412.267h-.314z" fill="#E48E00"/></g><defs><clipPath id="clip0_2959_12981"><path fill="#fff" transform="translate(.5)" d="M0 0h63v33H0z"/></clipPath></defs></svg>