<svg width="28" height="61" fill="none" xmlns="http://www.w3.org/2000/svg"><g clip-path="url(#clip0_2959_13426)"><path d="M21.301 58.672l.572-9.586 1.58-2.712s-3.596 1.48-9.617 1.48c-6.02 0-9.562-1.452-9.562-1.452l1.77 2.958.627 9.312c0 .999 3.275 1.808 7.315 1.808 4.04 0 7.315-.81 7.315-1.808zm-1.805-44.766l1.201-4.773 6.652-7.036L25.596.596 18.553 8.09l-1.394 5.703a92.92 92.92 0 00-3.15-.053C6.592 13.74.58 14.59.58 15.639s6.012 1.897 13.429 1.897c7.416 0 13.429-.85 13.429-1.897 0-.772-3.261-1.436-7.942-1.733z" fill="#D34A47"/><path d="M18.799 16.578s-.26.059-1.026.062c-.765.003-1.309-.005-1.525-.203a.345.345 0 01-.09-.23c0-.137.097-.217.22-.268l.115.183c-.05.018-.079.038-.079.06 0 .104.783.175 1.382.167.599-.007 1.323-.057 1.323-.159 0-.03-.055-.06-.15-.083l.115-.181c.156.048.291.142.29.304 0 .275-.35.317-.575.348z" fill="#fff"/><path d="M27.335 2.109c.168-.195-.086-.691-.566-1.11-.48-.418-1.006-.6-1.173-.406-.168.195.086.691.567 1.11.48.418 1.005.6 1.172.406zm-6.354 33.146c-.158-1.525 3.318-3.733 2.426-3.804-1.92.11-2.876 2.262-3.842 4.516-.354.825-1.565 4.347-2.36 3.914-.794-.434 1.03-3.33 1.542-5.05-.59.435-2.754 2.125-3.311.542-.896.766-2.812 1.18-2.595-.83-.477.85-1.547 2.035-2.832 1.542-1.687-.647.977-6.049 1.64-5.776.663.272-.134 1.503-.342 1.98-.459 1.052-.989 2.374-.635 2.645.607.464 2.257-1.754 2.293-1.803.31-.41 1.188-3.091 1.897-2.784.709.308-1.768 3.85-.842 4.552.187.142.951-.087 1.416-.593.3-.327.197-1.051 1.2-3.455 1.002-2.403 1.896-5.396 2.583-5.168.688.228.121 1.764-.126 2.337-1.157 2.687-3.158 7.128-2.215 6.792.944-.336 1.436-.356 2.36-1.444.924-1.087.882-2.878 1.498-2.84.616.038.512.613.363 1.05.606-.698 2.874-2.167 3.421-.712.649 1.723-3.244 4.21-2.273 4.084.946-.124 2.48-1.1 3.134-1.988l1.802-16.285s-1.814 1.509-13.348 1.509C2.299 18.186.674 16.709.674 16.709l1.534 14.864c.814-2.326 2.748-7.032 5.795-6.874 1.387.072 3.238 2.755 1.652 2.846-.67.039-.739-1.34-1.534-1.542-.573-.146-1.371.323-1.887.83-1.03 1.013-3.242 5.007-2.95 6.999.373 2.538 3.485-.883 4.012-1.898.37-.716.62-2.835 1.432-2.613.811.223-.07 2.41-.659 4.344-.66 2.172-1.007 4.463-1.835 4.2-.828-.264.52-3.068.472-3.559-.779.722-2.212 2.55-4.046 1.645l.952 9.23s2.532 2.012 10.16 2.012c7.627 0 10.253-1.98 10.253-1.98l1.183-10.691c-.968.947-4.03 2.63-4.227.733z" fill="#D34A47"/></g><defs><clipPath id="clip0_2959_13426"><path fill="#fff" transform="translate(.5 .5)" d="M0 0h27v60H0z"/></clipPath></defs></svg>