<svg width="38" height="43" fill="none" xmlns="http://www.w3.org/2000/svg"><path d="M35.378 1.604A1.998 1.998 0 0033.5.502h-3.27c-.953 0-1.656.383-2.037 1.072l-4.84 7.096 4.236 5.817 7.415-10.65c.814-.99.532-1.886.375-2.233z" fill="#75BB43"/><path d="M9.796 1.494A2.41 2.41 0 007.743.502H4.542a2.007 2.007 0 00-1.843 1.034c-.362.672-.276 1.482.215 2.232L14.78 20.225 1.137 39.269a2.08 2.08 0 00-.185 2.186 2.012 2.012 0 001.843 1.033h3.276a2.188 2.188 0 001.951-1.127L23.291 20.3 9.796 1.495z" fill="url(#paint0_linear_2827_12327)"/><path d="M37.006 39.434l-9.515-13.073-4.186 5.787 7.525 10.055.196.086c.299.135.622.206.95.21h3.2a2.056 2.056 0 001.802-.946 2.131 2.131 0 00.028-2.119z" fill="#EB2385"/><defs><linearGradient id="paint0_linear_2827_12327" x1=".723" y1="21.495" x2="23.291" y2="21.495" gradientUnits="userSpaceOnUse"><stop stop-color="#6764AD"/><stop offset=".04" stop-color="#5F69B1"/><stop offset=".21" stop-color="#407BBF"/><stop offset=".38" stop-color="#2789CA"/><stop offset=".57" stop-color="#1693D2"/><stop offset=".76" stop-color="#0B99D6"/><stop offset="1" stop-color="#089BD8"/></linearGradient></defs></svg>