<svg width="18" height="18" fill="none" xmlns="http://www.w3.org/2000/svg"><path d="M9.002 0h-.004C4.035 0 0 4.037 0 9c0 1.969.634 3.793 1.713 5.275L.592 17.62l3.46-1.106A8.922 8.922 0 009.001 18C13.965 18 18 13.962 18 9s-4.035-9-8.998-9z" fill="#4CAF50"/><path d="M13.34 11.928c-.184.494-.912.904-1.492 1.024-.397.08-.916.145-2.662-.546-2.233-.884-3.671-3.05-3.784-3.191-.107-.14-.902-1.148-.902-2.189 0-1.041.554-1.548.777-1.766.183-.178.486-.26.777-.26.094 0 .179.005.255.008.223.01.335.022.482.358.184.422.63 1.463.683 1.57.054.107.109.253.033.393-.072.145-.134.21-.246.333-.113.123-.219.218-.331.35-.103.115-.219.239-.09.452.13.208.576.904 1.234 1.463.848.72 1.536.951 1.782 1.05.183.072.402.054.536-.082.17-.175.38-.465.593-.75.152-.205.344-.23.546-.158.205.068 1.29.58 1.514.686.223.107.37.158.424.248.054.09.054.511-.13 1.007z" fill="#FAFAFA"/></svg>