<svg width="50" height="49" fill="none" xmlns="http://www.w3.org/2000/svg"><path d="M49.09 19.496l-.07-.179-6.782-17.7A1.77 1.77 0 0040.485.504c-.372.02-.728.153-1.02.382-.29.235-.5.553-.603.91l-4.58 14.012H15.739l-4.58-14.011a1.777 1.777 0 00-.602-.916A1.816 1.816 0 008.481.77a1.798 1.798 0 00-.698.84L.987 19.308l-.067.179a12.593 12.593 0 004.177 14.556l.023.019.063.044 10.332 7.737 5.111 3.869 3.114 2.35a2.094 2.094 0 002.533 0l3.113-2.35 5.112-3.869 10.395-7.784.025-.02a12.597 12.597 0 004.173-14.542z" fill="#E24329"/><path d="M49.09 19.496l-.07-.179a22.925 22.925 0 00-9.12 4.1L24.996 34.681c5.073 3.837 9.489 7.172 9.489 7.172l10.395-7.785.026-.02a12.6 12.6 0 004.185-14.552z" fill="#FC6D26"/><path d="M15.515 41.852l5.111 3.87 3.114 2.35a2.094 2.094 0 002.532 0l3.114-2.35 5.112-3.87s-4.411-3.344-9.494-7.171c-5.073 3.827-9.49 7.172-9.49 7.172z" fill="#FCA326"/><path d="M10.105 23.417a22.92 22.92 0 00-9.118-4.11l-.067.179a12.592 12.592 0 004.177 14.556l.023.018.063.044 10.332 7.738 9.481-7.172-14.891-11.253z" fill="#FC6D26"/></svg>