<svg width="50" height="49" fill="none" xmlns="http://www.w3.org/2000/svg"><path d="M16.15 47.716a3.755 3.755 0 01-2.962-1.432L2.045 32.434c-.732-.923-1.019-2.101-.732-3.247l3.98-17.289c.254-1.146 1.018-2.07 2.069-2.579l16.11-7.705a3.715 3.715 0 011.656-.382c.573 0 1.146.128 1.655.382l16.11 7.674c1.051.509 1.815 1.432 2.07 2.578l3.98 17.289a3.84 3.84 0 01-.732 3.247l-11.144 13.85c-.732.891-1.815 1.432-2.96 1.432l-17.958.032z" fill="#326DE6"/><path d="M25.096 2.029c.445 0 .891.095 1.305.286l16.11 7.673c.828.414 1.465 1.178 1.656 2.07l3.98 17.288c.222.923 0 1.878-.605 2.61l-11.144 13.85a3.033 3.033 0 01-2.388 1.147H16.15a3.033 3.033 0 01-2.388-1.147L2.618 31.956a3.187 3.187 0 01-.605-2.61l3.98-17.288c.222-.924.827-1.688 1.655-2.07l16.11-7.705a3.843 3.843 0 011.338-.254zm0-1.497c-.67 0-1.338.16-1.974.446L7.012 8.683a4.51 4.51 0 00-2.484 3.088L.548 29.06c-.318 1.37 0 2.77.892 3.885l11.143 13.85a4.498 4.498 0 003.534 1.687h17.861a4.497 4.497 0 003.534-1.688l11.144-13.85a4.49 4.49 0 00.891-3.884l-3.98-17.288a4.509 4.509 0 00-2.483-3.088L27.038.978a4.564 4.564 0 00-1.942-.446z" fill="#fff"/><path d="M41.236 27.977c-.031 0-.031 0 0 0h-.031c-.032 0-.064 0-.064-.032-.064 0-.127-.032-.191-.032-.223-.032-.414-.064-.605-.064-.096 0-.191 0-.318-.032h-.032c-.669-.063-1.21-.127-1.72-.286-.222-.096-.286-.223-.35-.35 0-.032-.032-.032-.032-.064l-.413-.127a12.592 12.592 0 00-.223-4.49 13.118 13.118 0 00-1.783-4.17l.318-.287v-.063a.72.72 0 01.16-.478c.381-.35.859-.637 1.432-.987.096-.064.191-.096.287-.16.19-.095.35-.19.54-.318.033-.031.096-.063.16-.127.032-.032.064-.032.064-.064.445-.382.54-1.018.223-1.432-.16-.223-.446-.35-.733-.35-.254 0-.477.095-.7.254l-.064.064c-.064.032-.095.095-.159.127-.16.16-.287.287-.414.446-.064.063-.127.159-.223.223-.446.477-.86.86-1.273 1.146a.514.514 0 01-.287.095c-.064 0-.127 0-.19-.032h-.065l-.382.255c-.413-.445-.86-.827-1.305-1.21a12.715 12.715 0 00-6.654-2.642l-.032-.414-.064-.064c-.095-.095-.223-.19-.254-.414-.032-.51.031-1.082.095-1.719v-.032c0-.095.032-.223.064-.318.032-.191.063-.382.095-.605v-.287c0-.573-.445-1.05-.987-1.05-.254 0-.51.127-.7.318a1.009 1.009 0 00-.287.732v.255c0 .223.032.414.096.605.032.096.032.191.064.318v.032c.063.637.159 1.21.095 1.72-.032.222-.16.318-.255.413l-.063.064-.032.414c-.573.064-1.146.127-1.72.255a12.273 12.273 0 00-6.304 3.566l-.318-.223h-.063c-.064 0-.128.031-.192.031a.513.513 0 01-.286-.095c-.414-.287-.828-.7-1.274-1.178-.063-.064-.127-.16-.223-.223a5.308 5.308 0 00-.413-.446c-.032-.031-.096-.063-.16-.127-.031-.032-.063-.032-.063-.064a1.112 1.112 0 00-.7-.254c-.287 0-.574.127-.733.35-.318.414-.223 1.05.223 1.433.032 0 .032.032.064.032.063.031.095.095.159.127.19.127.35.223.541.318.095.032.191.096.286.16.574.35 1.051.636 1.433.986.16.16.16.319.16.478v.064l.318.286c-.064.096-.127.16-.16.255-1.591 2.515-2.196 5.476-1.782 8.405l-.414.128c0 .031-.032.031-.032.063a.74.74 0 01-.35.35c-.478.16-1.05.223-1.72.287h-.031c-.096 0-.223 0-.319.032-.19 0-.382.032-.605.063-.063 0-.127.032-.19.032-.033 0-.064 0-.096.032-.573.128-.924.669-.828 1.178.095.446.51.732 1.019.732.095 0 .159 0 .254-.031.032 0 .064 0 .064-.032.064 0 .128-.032.191-.032.223-.064.382-.127.573-.223.096-.032.191-.095.287-.127h.032c.605-.223 1.146-.414 1.655-.478h.064c.191 0 .318.096.414.16.032 0 .032.031.063.031l.446-.064a12.591 12.591 0 004.171 5.986c.446.35.892.637 1.37.923l-.192.414c0 .032.032.032.032.064a.656.656 0 01.064.51c-.191.477-.478.955-.828 1.496v.032c-.064.095-.128.159-.191.254-.128.16-.223.319-.35.51a.69.69 0 00-.096.159c0 .032-.032.064-.032.064-.255.54-.064 1.146.414 1.369a.848.848 0 00.382.095c.382 0 .764-.255.955-.605 0-.032.032-.063.032-.063a.693.693 0 01.096-.16c.095-.222.127-.382.19-.573l.096-.286c.223-.637.382-1.146.669-1.592.127-.191.286-.223.414-.287.032 0 .032 0 .063-.032l.223-.413c1.401.54 2.93.827 4.458.827.923 0 1.878-.095 2.77-.318a14.128 14.128 0 001.655-.478l.191.35c.032 0 .032 0 .064.032a.59.59 0 01.414.287c.255.446.446.987.668 1.592v.032l.096.286c.064.191.095.382.19.573.033.064.065.096.096.16 0 .031.032.063.032.063.191.382.573.605.955.605a.848.848 0 00.383-.095c.222-.128.413-.319.477-.573a1.152 1.152 0 00-.064-.796c0-.032-.031-.032-.031-.064a.722.722 0 00-.096-.16 2.958 2.958 0 00-.35-.509c-.064-.095-.128-.159-.191-.254v-.032c-.35-.541-.669-1.019-.828-1.497-.064-.222 0-.35.032-.509 0-.032.032-.032.032-.064l-.16-.382c1.688-.987 3.12-2.388 4.203-4.107a12.338 12.338 0 001.337-2.865l.382.063c.032 0 .032-.032.064-.032.127-.063.223-.159.414-.159h.064c.509.064 1.05.255 1.655.478h.032c.096.032.191.095.287.127.19.096.35.16.573.223.063 0 .127.032.19.032.033 0 .064 0 .096.032.096.032.16.032.255.032.477 0 .891-.319 1.019-.733 0-.382-.35-.891-.923-1.05zm-14.74-1.56l-1.402.668-1.4-.668-.35-1.497.954-1.21h1.56l.956 1.21-.319 1.497zm8.31-3.312a10.04 10.04 0 01.222 3.216l-4.871-1.4a.863.863 0 01-.605-1.02.758.758 0 01.19-.35l3.853-3.47c.541.891.955 1.91 1.21 3.024zm-2.739-4.934l-4.17 2.96a.848.848 0 01-1.115-.19c-.096-.096-.128-.223-.16-.35l-.286-5.19a9.664 9.664 0 015.731 2.77zm-9.233-2.611c.35-.064.669-.128 1.019-.191l-.287 5.094c-.032.446-.382.828-.86.828a.756.756 0 01-.381-.096l-4.235-3.024a9.712 9.712 0 014.744-2.611zm-6.272 4.52l3.788 3.376c.35.286.383.828.096 1.178a.634.634 0 01-.382.254l-4.935 1.433c-.191-2.165.287-4.362 1.433-6.24zm-.86 8.629l5.062-.86a.859.859 0 01.892.669c.032.191.032.35-.032.51l-1.942 4.68a10.036 10.036 0 01-3.98-4.999zm11.621 6.336c-.732.159-1.464.255-2.229.255-1.114 0-2.196-.191-3.215-.51l2.515-4.553c.255-.286.669-.414 1.019-.223.159.096.286.223.382.35l2.451 4.426c-.286.096-.604.16-.923.255zm6.209-4.426c-.796 1.274-1.847 2.293-3.057 3.089L28.47 28.9a.857.857 0 01.446-.987c.127-.064.287-.096.446-.096l5.094.86c-.191.7-.51 1.337-.923 1.942z" fill="#fff"/></svg>