<svg width="74" height="15" fill="none" xmlns="http://www.w3.org/2000/svg"><path d="M6.5 2.828L8.476 14.86h1.26L12.087.16h-.861L9.105 13.517 7.047.224h-1.03l-2.14 13.335L1.67.16H.726l2.373 14.7h1.344L6.5 2.828zm12.745 8.778l.735 3.255h.966L17.67.14h-1.407L13.05 14.86h.882l.735-3.254h4.578zm-2.31-10.353l2.163 9.513h-4.284l2.121-9.513zm8.116 13.607V1.044h3.003V.16h-6.951v.882h2.982V14.86h.966zm5.171-7.895V1.043h4.83V.16h-5.796v14.7h5.796v-.882h-4.83V7.847h4.011v-.882h-4.01zM36.619.16v14.7h.966V8.289h1.533c1.68 0 2.75.546 2.75 2.499v2.31c0 .798.064 1.323.316 1.764h1.008c-.315-.483-.357-1.155-.357-1.764v-2.29c0-1.595-.61-2.666-2.121-3.002 1.449-.336 2.12-1.323 2.12-3.045V3.479c0-2.08-.902-3.318-3.15-3.318H36.62zm.966 7.246V1.043h2.079c1.596 0 2.205.945 2.205 2.52v1.386c0 1.974-1.008 2.457-2.73 2.457h-1.554zm8.1-.084v-6.28h4.62v-.88H44.72v14.7h.966V8.204h3.801v-.882h-3.8zm11.807 4.284l.735 3.255h.966L55.917.14H54.51l-3.213 14.72h.882l.735-3.254h4.578zm-2.31-10.353l2.163 9.513h-4.284l2.121-9.513zM66.24 14.86v-.881h-4.62V.16h-.966v14.7h5.586zm7.034 0v-.881h-4.62V.16h-.966v14.7h5.586z" fill="#000"/></svg>