<svg width="54" height="49" fill="none" xmlns="http://www.w3.org/2000/svg"><path d="M31.82 24.465a4.82 4.82 0 11-9.64 0 4.82 4.82 0 019.64 0z" fill="#00D8FF"/><path fill-rule="evenodd" clip-rule="evenodd" d="M26.98 6.502a36.07 36.07 0 011.39-1.276c2.249-1.957 4.494-3.365 6.524-4.111 1.99-.732 3.994-.901 5.547-.005 1.606.926 2.498 2.83 2.867 5.038.376 2.252.258 5.063-.385 8.183-.08.39-.17.785-.268 1.186.599.172 1.178.355 1.736.547 2.82.97 5.161 2.212 6.822 3.598 1.628 1.359 2.776 3.01 2.776 4.803 0 1.854-1.205 3.577-2.933 5-1.763 1.451-4.257 2.753-7.281 3.755-.382.126-.773.248-1.174.364.172.683.32 1.35.442 1.999.55 2.896.62 5.495.23 7.584-.383 2.055-1.257 3.819-2.788 4.701-1.57.905-3.633.767-5.706.035-2.113-.747-4.457-2.18-6.792-4.221a30.362 30.362 0 01-1.006-.922c-.336.32-.672.628-1.007.922-2.335 2.04-4.679 3.474-6.792 4.22-2.073.733-4.136.871-5.706-.034-1.531-.882-2.405-2.646-2.789-4.7-.39-2.09-.32-4.689.23-7.585.12-.626.26-1.268.424-1.925a30.54 30.54 0 01-1.46-.458c-2.935-1.003-5.347-2.317-7.05-3.775-1.67-1.43-2.82-3.148-2.82-4.96 0-1.767 1.09-3.405 2.68-4.764 1.614-1.381 3.9-2.62 6.684-3.59.616-.214 1.26-.417 1.927-.608a32.75 32.75 0 01-.264-1.172c-.643-3.12-.761-5.931-.385-8.183.37-2.208 1.26-4.112 2.867-5.038 1.553-.896 3.556-.727 5.547.005 2.03.746 4.275 2.154 6.524 4.111.462.402.925.828 1.39 1.276zm8.71-3.223c-1.692.622-3.699 1.853-5.807 3.687-.427.371-.857.767-1.29 1.184a55.352 55.352 0 014.555 5.643 55.29 55.29 0 017.275 1.146c.088-.363.169-.72.241-1.073.604-2.93.686-5.443.37-7.338-.325-1.938-1.02-3.003-1.745-3.42-.681-.394-1.869-.465-3.6.171zm-5.553 10.305a51.047 51.047 0 00-3.157-3.782 51.052 51.052 0 00-3.157 3.784 68.235 68.235 0 013.176-.074H27c1.058 0 2.105.025 3.137.072zm-16.6 1.347c-.088-.36-.168-.715-.24-1.065-.604-2.93-.686-5.443-.37-7.338.325-1.938 1.02-3.003 1.744-3.42.682-.394 1.87-.465 3.6.171 1.692.622 3.699 1.853 5.807 3.687.427.371.857.767 1.29 1.184a55.332 55.332 0 00-4.557 5.645 56.257 56.257 0 00-7.275 1.136zm-1.618 2.794c-.62.177-1.216.366-1.785.564-2.601.907-4.61 2.022-5.945 3.164-1.36 1.164-1.872 2.22-1.872 3.012 0 .826.557 1.96 2.014 3.209 1.425 1.22 3.557 2.408 6.295 3.344.43.147.875.286 1.333.418a56.113 56.113 0 012.638-6.86c-1.092-2.342-2-4.653-2.678-6.851zm3.994 4.147a49.302 49.302 0 01-1.757-4.717 51.88 51.88 0 014.969-.858c-.435.68-.863 1.374-1.282 2.082h-.005l-.369.638a68.322 68.322 0 00-1.556 2.855zm1.235 2.696a65.328 65.328 0 012.146-4.097l.174-.302a64.872 64.872 0 012.617-4.167 65.352 65.352 0 014.914-.184H27c1.665 0 3.295.063 4.875.182a64.867 64.867 0 012.618 4.17l.174.3a65.275 65.275 0 012.146 4.098 69.597 69.597 0 01-2.28 4.289 75.593 75.593 0 01-2.59 4.178 69.44 69.44 0 01-4.943.173c-1.695 0-3.36-.052-4.973-.16a75.633 75.633 0 01-2.599-4.191 69.597 69.597 0 01-2.28-4.289zm-1.218 2.707a51.797 51.797 0 00-1.731 4.723 49.19 49.19 0 004.91.792 80.38 80.38 0 01-1.678-2.781 73.335 73.335 0 01-1.5-2.734zm4.815 7.99c-2.534-.209-4.953-.553-7.168-1.043a33.072 33.072 0 00-.394 1.791c-.514 2.707-.551 5.004-.229 6.73.329 1.761.987 2.732 1.674 3.127.715.413 1.977.497 3.786-.142 1.768-.624 3.863-1.878 6.042-3.782.303-.265.607-.543.911-.834-1.578-1.712-3.132-3.69-4.622-5.846zm7.849 5.847c.304.29.608.569.91.834 2.18 1.904 4.275 3.158 6.043 3.782 1.809.639 3.07.555 3.786.143.686-.396 1.345-1.367 1.674-3.127.322-1.727.285-4.024-.23-6.73-.113-.601-.25-1.22-.409-1.856-2.205.5-4.613.863-7.138 1.087-1.495 2.164-3.053 4.15-4.636 5.867zm13.385-9.749c.366-.106.723-.217 1.07-.332 2.84-.941 5.059-2.125 6.541-3.346 1.518-1.25 2.093-2.384 2.093-3.22 0-.787-.532-1.851-1.948-3.033-1.384-1.154-3.452-2.278-6.094-3.188a33.659 33.659 0 00-1.603-.506c-.678 2.195-1.584 4.501-2.674 6.839a56.248 56.248 0 012.615 6.786zm-3.948-4.088a51.917 51.917 0 011.712 4.66 49.29 49.29 0 01-4.87.821 80.251 80.251 0 001.657-2.747 73.338 73.338 0 001.5-2.734zm.017-5.403a49.32 49.32 0 001.754-4.71 51.02 51.02 0 00-4.966-.865c.435.679.863 1.374 1.282 2.082h.005l.368.638a68.322 68.322 0 011.557 2.855zM26.98 39.46a48.667 48.667 0 01-3.273-4.012 80.14 80.14 0 003.293.066c1.096 0 2.184-.024 3.258-.072a48.71 48.71 0 01-3.277 4.018z" fill="#00D8FF"/></svg>