<svg width="36" height="49" fill="none" xmlns="http://www.w3.org/2000/svg"><path d="M4.163.5H6.32v2.138h1.988V.5h2.156v6.469H8.307V4.812H6.338V6.97H4.163m9.15-4.313H11.41V.5h5.972v2.156h-1.913V6.97h-2.156M18.33.5h2.26l1.387 2.278L23.363.5h2.26v6.469h-2.157V3.762l-1.51 2.326-1.508-2.325v3.206h-2.12M26.692.5h2.157v4.331h3.056V6.97H26.69" fill="#000"/><path d="M4.087 44.656L.993 9.93h34.013l-3.094 34.706-13.94 3.862" fill="#E44D26"/><path d="M18 45.547V12.78h13.903L29.25 42.406" fill="#F16529"/><path d="M7.313 17.027H18v4.257h-6.019l.394 4.359H18v4.247H8.475m.188 2.137h4.274l.3 3.404L18 36.706v4.443l-8.738-2.437" fill="#EBEBEB"/><path d="M28.65 17.027H17.98v4.257h10.276m-.385 4.359h-9.89v4.256h5.25l-.497 5.532-4.754 1.275v4.424l8.72-2.418" fill="#fff"/></svg>