<?xml version="1.0" standalone="no"?>
<!DOCTYPE svg PUBLIC "-//W3C//DTD SVG 20010904//EN"
 "http://www.w3.org/TR/2001/REC-SVG-20010904/DTD/svg10.dtd">
<svg version="1.0" xmlns="http://www.w3.org/2000/svg"
 width="512.000000pt" height="512.000000pt" viewBox="0 0 512.000000 512.000000"
 preserveAspectRatio="xMidYMid meet">
<metadata>
Created by potrace 1.14, written by Peter Selinger 2001-2017
</metadata>
<g transform="translate(0.000000,512.000000) scale(0.100000,-0.100000)"
fill="#000000" stroke="none">
<path d="M0 2560 l0 -2560 2560 0 2560 0 0 2560 0 2560 -2560 0 -2560 0 0
-2560z m2975 530 c137 -324 250 -589 251 -587 1 1 108 256 237 565 130 310
237 566 240 568 2 2 166 3 364 2 l360 -3 -428 -1040 c-236 -572 -461 -1118
-500 -1213 l-72 -173 -145 3 -146 3 -272 605 c-151 333 -279 618 -287 634 -12
27 -21 11 -322 -608 l-310 -636 -133 3 -134 2 -124 310 c-68 170 -124 314
-124 320 0 5 217 420 483 922 l482 913 166 0 166 0 248 -590z m-1508 357 l73
-189 -207 -339 c-113 -187 -210 -336 -214 -332 -6 6 -366 891 -420 1031 l-9
22 352 -2 351 -3 74 -188z"/>
</g>
</svg>
