<svg width="20" height="20" fill="none" xmlns="http://www.w3.org/2000/svg"><path d="M1.304 3.885H2.76a2.323 2.323 0 01-.355-1.008C2.29 1.722 2.897.687 3.931.227a2.553 2.553 0 012.787.45l1.838 1.669a1.95 1.95 0 012.89.002l1.84-1.671a2.554 2.554 0 012.788-.449c1.033.46 1.64 1.495 1.525 2.65a2.322 2.322 0 01-.355 1.007h1.452c.72 0 1.304.585 1.304 1.306v1.96a.653.653 0 01-.652.654H.652A.653.653 0 010 7.15V5.19c0-.721.584-1.306 1.304-1.306zm10.652-.218v.218h3.069a1.29 1.29 0 001.246-1.603 1.28 1.28 0 00-.705-.85 1.254 1.254 0 00-1.404.213l-2.206 2.003v.02zM3.7 2.704c.05.679.661 1.18 1.341 1.18h3.003v-.217l.001-.023-2.172-1.972c-.334-.303-.801-.445-1.233-.316-.62.186-.985.714-.94 1.348z" fill="url(#paint0_linear)"/><path d="M18.696 9.111v9.582c0 .722-.584 1.307-1.305 1.307h-6.087V9.111h7.392z" fill="url(#paint1_linear)"/><path d="M8.696 9.111V20H2.609c-.72 0-1.305-.585-1.305-1.307V9.111h7.392z" fill="url(#paint2_linear)"/><defs><linearGradient id="paint0_linear" x1="18.489" y1="10.05" x2="0" y2="10.05" gradientUnits="userSpaceOnUse"><stop stop-color="#5625DF"/><stop offset="0" stop-color="#5625DF"/><stop offset="1" stop-color="#A93AFF"/></linearGradient><linearGradient id="paint1_linear" x1="18.489" y1="10.05" x2="0" y2="10.05" gradientUnits="userSpaceOnUse"><stop stop-color="#5625DF"/><stop offset="0" stop-color="#5625DF"/><stop offset="1" stop-color="#A93AFF"/></linearGradient><linearGradient id="paint2_linear" x1="18.489" y1="10.05" x2="0" y2="10.05" gradientUnits="userSpaceOnUse"><stop stop-color="#5625DF"/><stop offset="0" stop-color="#5625DF"/><stop offset="1" stop-color="#A93AFF"/></linearGradient></defs></svg>