<svg width="29" height="16" fill="none" xmlns="http://www.w3.org/2000/svg"><path d="M22.895 5.549c.619-1.255 1.595-2.495 2.9-3.69.412-.377.468-.922.13-1.345C25.663.181 25.232 0 24.762 0c-.131 0-.263.008-.394.045-2.759.65-9.205 2.956-9.383 10.35-.066 2.85 2.524 5.298 5.892 5.578 1.868.151 3.726-.34 5.105-1.338 1.38-1.005 2.167-2.442 2.167-3.938 0-2.495-2.195-4.68-5.254-5.148zM5.902 15.973c1.858.151 3.716-.34 5.095-1.338 1.38-1.005 2.168-2.442 2.168-3.938 0-2.495-2.196-4.68-5.255-5.148.62-1.255 1.595-2.495 2.9-3.69.412-.377.468-.922.13-1.345C10.679.181 10.247 0 9.778 0c-.131 0-.262.008-.394.045C6.625.695.178 3.001 0 10.395v.105c0 2.805 2.562 5.193 5.902 5.473z" fill="#6B2BE7"/></svg>