<svg width="16" height="15" fill="none" xmlns="http://www.w3.org/2000/svg"><path fill-rule="evenodd" clip-rule="evenodd" d="M7.63.96a.65.65 0 01.685.07l6.928 5.358a.65.65 0 01.012 1.02L8.326 13.02a.65.65 0 01-1.059-.505v-2.262c-.85-.103-1.866.297-2.963 1.022-1.033.683-1.99 1.552-2.756 2.246-.164.15-.32.291-.466.421A.65.65 0 010 13.457c0-2.107.932-4.403 2.342-6.192 1.27-1.612 3.005-2.905 4.925-3.222v-2.5A.65.65 0 017.631.96zm.937 1.908v1.758a.65.65 0 01-.616.649C6.298 5.36 4.637 6.452 3.363 8.07c-.886 1.124-1.54 2.447-1.854 3.741.618-.54 1.33-1.127 2.078-1.62 1.325-.876 2.987-1.622 4.55-1.06a.65.65 0 01.43.612v1.409l5.232-4.238-5.232-4.046z" fill="#171718"/></svg>