<svg width="48" height="49" fill="none" xmlns="http://www.w3.org/2000/svg"><path d="M48.002 24.498a23.997 23.997 0 11-47.995 0 23.997 23.997 0 0147.995 0z" fill="#000"/><path d="M34.49 9.38c-2.438.08-4.565 1.428-6.148 3.286a20.738 20.738 0 00-3.762 6.923c-1.502-1.232-2.661-2.828-5.075-3.521a6.206 6.206 0 00-5.627 1.027 5.04 5.04 0 00-1.712 2.507c-.723 2.354.762 4.45 1.434 5.2l1.476 1.579a2.237 2.237 0 01.676 2.276c-.385 1.262-1.904 2.076-3.462 1.596-.697-.214-1.711-.732-1.472-1.459.125-.27.268-.53.428-.779.074-.158.137-.32.188-.488.287-.928-.106-2.14-1.1-2.443-.928-.287-1.878-.06-2.246 1.134-.428 1.356.231 3.821 3.715 4.895 4.078 1.254 7.53-.967 8.019-3.85.308-1.815-.51-3.163-2.011-4.896l-1.224-1.353a2.23 2.23 0 01-.244-2.97c.646-.817 1.566-1.168 3.076-.757 2.204.6 3.184 2.14 4.823 3.36-.672 2.203-1.134 4.433-1.515 6.431l-.244 1.49c-1.172 6.14-2.066 9.512-4.39 11.45a3.766 3.766 0 01-2.14.856.617.617 0 01-.706-.509c0-.368.3-.54.51-.706a1.284 1.284 0 00.748-1.352 2.04 2.04 0 00-2.186-1.943 2.533 2.533 0 00-2.354 2.568c.056 1.711 1.64 2.97 4.023 2.888 1.283-.043 4.12-.56 6.928-3.898 3.265-3.822 4.18-8.208 4.865-11.413l.766-4.236c.428.05.882.085 1.378.098 4.065.085 6.102-2.02 6.132-3.552 0-.928-.608-1.84-1.489-1.819a1.711 1.711 0 00-1.618 1.327c-.188.856 1.284 1.626.137 2.375-.821.53-2.276.907-4.369.603l.381-2.084c.77-3.954 1.712-8.815 5.323-8.935.262 0 1.224 0 1.246.647 0 .21-.047.265-.295.753-.23.308-.35.685-.339 1.07.035 1.01.8 1.673 1.913 1.634 1.485-.051 1.913-1.498 1.887-2.238-.064-1.75-1.908-2.854-4.343-2.773z" fill="#fff"/></svg>