<svg width="54" height="41" fill="none" xmlns="http://www.w3.org/2000/svg"><path d="M46.468 23.528c-1.882.01-3.519.463-4.889 1.134-.503-.996-1.005-1.884-1.094-2.535-.099-.76-.217-1.223-.099-2.13.119-.908.65-2.2.641-2.299-.01-.098-.118-.562-1.203-.572-1.084-.01-2.02.207-2.129.493a11.89 11.89 0 00-.453 1.608c-.188.987-2.169 4.508-3.303 6.352-.364-.72-.68-1.35-.749-1.854-.098-.76-.217-1.223-.098-2.13.118-.908.65-2.2.64-2.299-.01-.098-.118-.562-1.202-.572-1.085-.01-2.021.207-2.13.493-.108.287-.226.957-.453 1.608-.227.651-2.859 6.53-3.549 8.049-.354.78-.66 1.4-.877 1.825 0 0-.01.03-.04.079-.187.364-.295.562-.295.562v.01c-.148.266-.306.513-.385.513-.059 0-.167-.71.02-1.677.394-2.042 1.33-5.218 1.321-5.327 0-.059.178-.611-.611-.897-.769-.286-1.045.187-1.114.187-.069 0-.118.168-.118.168s.857-3.57-1.637-3.57c-1.557 0-3.706 1.706-4.77 3.244-.671.365-2.1 1.145-3.628 1.983-.582.325-1.183.651-1.745.957-.04-.04-.079-.089-.119-.129-3.016-3.225-8.595-5.503-8.359-9.834.089-1.578.631-5.72 10.716-10.75 8.3-4.094 14.904-2.96 16.048-.445 1.636 3.59-3.54 10.259-12.115 11.225-3.273.365-4.988-.898-5.422-1.371-.453-.493-.523-.523-.69-.424-.276.148-.099.592 0 .848.256.67 1.311 1.855 3.095 2.437 1.577.512 5.412.799 10.055-.997 5.195-2.012 9.256-7.605 8.063-12.29C32.6.447 24.713-1.12 17.252 1.531c-4.436 1.58-9.247 4.065-12.707 7.3-4.11 3.847-4.761 7.19-4.495 8.591.956 4.971 7.807 8.207 10.548 10.604-.138.079-.267.148-.375.207-1.37.68-6.595 3.413-7.896 6.303-1.479 3.274.237 5.622 1.37 5.938 3.52.976 7.137-.78 9.08-3.68 1.941-2.9 1.704-6.667.807-8.394a.207.207 0 00-.039-.059c.355-.207.72-.424 1.074-.631.7-.414 1.39-.799 1.982-1.115-.335.918-.582 2.013-.7 3.59-.148 1.855.611 4.262 1.607 5.209.443.414.966.424 1.301.424 1.163 0 1.686-.967 2.267-2.11.71-1.402 1.35-3.03 1.35-3.03s-.798 4.4 1.37 4.4c.79 0 1.588-1.026 1.943-1.549v.01s.02-.03.059-.098l.128-.207v-.02a85.361 85.361 0 002.08-3.886c1.36-2.683 2.672-6.037 2.672-6.037s.118.819.522 2.18c.237.799.73 1.677 1.124 2.525-.316.444-.513.69-.513.69l.01.01c-.256.336-.532.7-.838 1.056-1.074 1.282-2.356 2.752-2.533 3.176-.207.503-.158.868.236 1.164.286.217.799.246 1.321.217.966-.07 1.646-.306 1.982-.454a6.647 6.647 0 001.705-.898c1.055-.779 1.696-1.893 1.636-3.363-.03-.809-.295-1.618-.62-2.377.098-.138.187-.276.285-.415 1.666-2.436 2.958-5.109 2.958-5.109s.118.819.522 2.18c.197.69.601 1.44.956 2.17-1.567 1.272-2.533 2.752-2.878 3.719-.621 1.795-.138 2.604.778 2.791.415.089 1.006-.108 1.44-.296a6.552 6.552 0 001.823-.937c1.055-.78 2.07-1.864 2.011-3.334-.03-.67-.207-1.331-.453-1.973 1.33-.552 3.046-.858 5.234-.601 4.692.552 5.619 3.482 5.442 4.715-.178 1.233-1.164 1.903-1.489 2.11-.325.207-.434.277-.404.424.04.218.197.208.473.168.385-.069 2.465-.996 2.553-3.265.148-2.9-2.612-6.066-7.492-6.036zM10.271 35.739c-1.557 1.697-3.726 2.338-4.662 1.795-1.006-.582-.612-3.087 1.3-4.882 1.164-1.095 2.662-2.111 3.658-2.733.227-.138.562-.335.966-.582l.109-.059.236-.148c.7 2.565.03 4.824-1.607 6.609zm11.337-7.713c-.543 1.321-1.676 4.705-2.366 4.517-.592-.158-.957-2.722-.119-5.257.424-1.273 1.321-2.792 1.844-3.383.848-.947 1.784-1.263 2.01-.878.287.503-1.034 4.172-1.37 5zm9.354 4.478c-.226.118-.443.197-.542.138-.069-.04.099-.198.099-.198s1.173-1.262 1.636-1.834c.266-.335.582-.73.917-1.174v.128c0 1.51-1.459 2.525-2.11 2.94zm7.216-1.647c-.167-.119-.138-.513.424-1.746.217-.484.73-1.293 1.607-2.072.098.316.167.622.158.908-.01 1.903-1.37 2.614-2.189 2.91z" fill="#CD6799"/></svg>