<svg width="44" height="43" fill="none" xmlns="http://www.w3.org/2000/svg"><path d="M7.845.5h28.304c4.291 0 7.761 3.41 7.761 7.628v26.744c0 4.218-3.47 7.628-7.76 7.628H7.844c-4.291 0-7.761-3.41-7.761-7.628V8.128C.084 3.91 3.554.5 7.844.5z" fill="#001E36"/><path d="M9.945 29.956v-18.47c0-.125.055-.197.183-.197.31 0 .602 0 1.022-.018.439-.018.895-.018 1.388-.036.493-.018 1.023-.018 1.59-.035.565-.018 1.113-.018 1.66-.018 1.498 0 2.74.18 3.762.556a6.54 6.54 0 012.447 1.472 5.704 5.704 0 011.334 2.046c.273.754.42 1.526.42 2.333 0 1.544-.366 2.818-1.096 3.823a6.247 6.247 0 01-2.94 2.19c-1.242.449-2.611.61-4.109.61-.438 0-.73 0-.913-.017-.182-.018-.438-.018-.785-.018v5.761c.018.126-.073.233-.2.251h-3.544c-.146 0-.219-.072-.219-.233zm3.981-15.203v6.031c.256.018.493.036.712.036h.968a6.93 6.93 0 002.1-.323 3.146 3.146 0 001.498-.951c.383-.449.566-1.06.566-1.849a2.916 2.916 0 00-.42-1.597 2.64 2.64 0 00-1.279-1.024c-.675-.269-1.406-.376-2.154-.359-.475 0-.895 0-1.242.018-.365-.018-.621 0-.749.018zm21.22 4.937a6.535 6.535 0 00-1.753-.611 9.786 9.786 0 00-2.045-.233 3.737 3.737 0 00-1.096.125.94.94 0 00-.566.36.94.94 0 00-.146.484.79.79 0 00.183.466c.164.198.383.36.62.485.42.216.859.413 1.297.593.986.322 1.936.771 2.812 1.31a4.21 4.21 0 011.443 1.49c.292.574.438 1.202.42 1.848a4.124 4.124 0 01-.712 2.387 4.563 4.563 0 01-2.045 1.598c-.895.377-1.99.574-3.306.574-.84 0-1.661-.072-2.483-.233a7.462 7.462 0 01-1.863-.574c-.127-.072-.219-.198-.2-.342v-3.123c0-.053.018-.125.073-.161.054-.036.11-.018.164.018.712.413 1.46.7 2.264.88a8.64 8.64 0 002.155.268c.694 0 1.187-.09 1.516-.25a.833.833 0 00.493-.755c0-.25-.146-.484-.439-.718-.292-.233-.894-.502-1.79-.843a11.248 11.248 0 01-2.592-1.293 4.675 4.675 0 01-1.388-1.525 3.796 3.796 0 01-.42-1.83c0-.773.22-1.509.62-2.173a4.48 4.48 0 011.918-1.651c.858-.43 1.936-.628 3.232-.628.75 0 1.516.054 2.265.161a6.512 6.512 0 011.57.413c.073.018.146.09.183.162a.885.885 0 01.036.215v2.926a.22.22 0 01-.091.18c-.164.035-.256.035-.329 0z" fill="#31A8FF"/></svg>