<svg width="46" height="45" fill="none" xmlns="http://www.w3.org/2000/svg"><path d="M10.549 7.37c-2.55 3.731-2.232 8.586-.29 12.547l.143.282.097.179.057.102c.034.063.067.123.096.185l.186.325.106.179.216.343.097.145c.096.154.205.308.312.46l.009.012c.017.024.036.048.048.072.093.13.193.259.29.386l.107.139.263.33.1.122c.12.144.242.286.367.426l.008.008.014.016c.121.137.245.27.373.4l.12.123.297.297.122.118c.134.128.27.254.408.378l.077.068.37.318.154.125.308.24.165.129.473.345.034.025c.111.077.224.152.337.227l.145.099.527.328.146.083.396.226c.072.04.146.078.218.115l.283.145.065.032.116.057.449.211.095.048c.173.077.348.151.523.222l.128.051.493.186.062.023c.182.064.366.125.55.183l.133.04c.193.058.374.127.568.165 12.33 2.295 15.912-7.542 15.912-7.542-3.008 3.991-8.347 5.044-13.406 3.872-.191-.048-.377-.104-.564-.16l-.141-.05a16.773 16.773 0 01-.544-.18l-.075-.027c-.16-.058-.32-.118-.479-.18l-.135-.055a15.35 15.35 0 01-.517-.219l-.104-.046-.436-.208-.125-.061a15.205 15.205 0 01-.338-.176l-.225-.12a13.137 13.137 0 01-.405-.231l-.136-.078a20.94 20.94 0 01-.527-.328c-.049-.031-.095-.064-.143-.096l-.375-.254-.12-.087-.355-.26-.158-.121-.32-.255-.142-.116-.398-.338a.45.45 0 00-.049-.037 18.81 18.81 0 01-.419-.388l-.117-.116-.302-.3-.117-.12c-.126-.13-.249-.264-.37-.398l-.018-.02a15.314 15.314 0 01-.374-.434l-.098-.119-.27-.339-.1-.125-.31-.423c-2.81-3.902-3.813-9.282-1.574-13.702m5.928-.573c-1.844 2.702-1.744 6.319-.306 9.177.24.48.513.943.816 1.386.276.403.582.883.95 1.207.132.145.27.29.413.437.035.037.072.072.109.11.137.136.278.27.422.4l.018.015c.162.144.328.284.497.42l.112.089a12.07 12.07 0 00.531.395c.078.054.157.106.236.158.037.025.073.052.11.076.127.082.254.162.384.238l.053.032.338.193c.04.023.08.043.121.064l.241.125.036.016c.163.082.326.16.494.234.035.016.072.03.109.046.134.058.269.114.405.168l.174.064c.123.046.247.09.372.132l.167.055c.178.056.353.127.538.158 9.519 1.606 11.717-5.859 11.717-5.859-1.98 2.905-5.817 4.293-9.912 3.21-.18-.048-.36-.1-.539-.159-.054-.017-.108-.035-.162-.048a10.926 10.926 0 01-.377-.132l-.17-.065c-.137-.048-.272-.108-.405-.166-.037-.016-.074-.03-.11-.048a9.354 9.354 0 01-.497-.235c-.084-.042-.166-.086-.249-.13l-.144-.074a9.644 9.644 0 01-.315-.181l-.075-.049a12.176 12.176 0 01-.381-.237c-.04-.025-.077-.048-.115-.078l-.247-.167a13.344 13.344 0 01-.515-.383l-.116-.093c-1.792-1.44-3.212-3.41-3.888-5.643-.708-2.316-.555-4.915.676-7.024m5.139-.184c-1.087 1.63-1.194 3.653-.435 5.452.796 1.91 2.425 3.408 4.327 4.118.079.03.157.056.242.083l.104.034c.112.036.223.077.339.1 5.256 1.034 6.682-2.748 7.061-3.304-1.249 1.832-3.348 2.271-5.923 1.635a7.349 7.349 0 01-1.367-.51 7.627 7.627 0 01-1.297-.806C25.86 6.897 24.429 3.5 25.932.733" fill="#0868AC"/><path d="M13.51 36.46l-.356 1.262.356-1.262zm1.832 2.74l-.392-.003.392.003zm-.096 1.885l-2.351.008 2.35-.008zm.492-1.882l-.393-.003.393.003zm-.28 1.722l.41-1.563-.41 1.563zm8.652-7.194l-.762 3.587.762-3.587zm-1.962 0l-.579 2.68.58-2.68z" fill="#131B28"/><path d="M23.975 33.569h-1.632c-.09 0-.18.072-.2.161l-1.158 5.36a.214.214 0 01-.199.161h-1.155c-1.143 0-1.01-.79-.772-1.872l.007-.033.139-.739.06-.304.527-2.573a.13.13 0 00-.132-.162h-1.675a.212.212 0 00-.198.162l-.755 3.578c-.415 1.893-.305 3.7 1.95 3.756l.065.001h3.538c.091 0 .18-.072.2-.161l1.526-7.175c.02-.088-.04-.16-.13-.16h-.006zm6.508 5.7c.091 0 .145.073.132.162l-.158.775m-.158.775l.158-.775-.158.775zm-.2.163l-3.006.014 3.007-.014z" fill="#131B28"/><path d="M26.12 38.273c-.002-.085.094-.23.185-.23l-.204-.004c-.096.924.018.234.018.234zm1.122 2.885h-.032.032zm3.241-1.888c.091 0 .145.073.132.161l-.184.9m-2.417.83h-.007.007zm-.4-.003h-.024.023zm-.123 0h-.038.038zm-.12 0h-.033.034zm.224 0h-.1.1zm.412.002l-.394.002.394-.001zm2.093-.011l-2.087.012 2.087-.012zm.193-.168l.133-.648-.133.649zm-2.845.177h-.076.085-.01zm-.24 0h-.115.116zm.125 0h-.097.097zm-23.87-2.865l.254-1.124-.29 1.284-.033.161.07-.322zm3.034-4.742H4.705a.217.217 0 00-.201.16l-.34 1.497a.125.125 0 00.129.16h1.805a.214.214 0 00.2-.16l.328-1.5c.02-.088-.038-.16-.13-.16l.001.003zm-.39 2.494l-.53 2.432.53-2.432zM.902 44.102l1.478.012c-.437 0-1.157-.008-1.479-.012z" fill="#131B28"/><path d="M3.966 36.044l-.254 1.124.254-1.124zm2.013-.16H4.172a.217.217 0 00-.201.16l-.507 2.247-.07.323-.483 2.294a3.461 3.461 0 01-.087.317s-.338 1.003-.904.992l-.562-.01a.216.216 0 00-.203.157L.78 43.939a.126.126 0 00.126.162l1.478.012c1.417 0 2.164-.785 2.643-3.044l1.086-5.019c.019-.088-.04-.16-.13-.16l-.005-.006zm25.656 5.182c-.091 0-.145-.073-.13-.161l1.358-6.364m.66 6.363l.55-2.716-.55 2.716z" fill="#131B28"/><path d="M31.524 40.985a.694.694 0 01.014-.242l.645-3.02-.68 3.181c-.019.089.04.161.131.161h.165c-.09 0-.264-.036-.275-.08zm1.892.044a.879.879 0 01-.255.036h.165a.212.212 0 00.198-.161l.033-.161c-.018.088-.097.266-.145.286h.004zm.381-1.483l.243-1.2-.243 1.2zm5.36-4.58l.076.31c.02.088-.037.16-.127.16" fill="#131B28"/><path d="M33.555 40.744l.241-1.197-.24 1.197zm5.529-6.098l.074.317-.074-.317zm-5.044 3.703l.066-.32.26-1.215-.294 1.375-.032.159zm-1.155-3.911l-.057.265-.644 3.021.68-3.182.02-.104z" fill="#131B28"/><path d="M39.234 35.276l-.075-.308-.11-.483c-.147-.57-.578-.9-1.513-.9l-4.305-.002a.213.213 0 00-.199.161l-.066.315-.097.477-1.324 6.203a.69.69 0 00-.015.24c.012.05.185.081.276.081h1.36a.855.855 0 00.255-.036c.05-.02.123-.193.145-.286l.517-2.555.552-2.589a.214.214 0 01.199-.16l4.282-.003c.09 0 .148-.072.127-.16l-.009.005zm5.513-2.795l-.33.001h-1.37a.352.352 0 00-.258.136l-3.03 4.44c-.052.075-.11.064-.131-.024l-.223-.978a.216.216 0 00-.201-.16h-1.948c-.091 0-.145.07-.12.157l.869 3.06c.025.086.026.23.004.318l-.386 1.48a.12.12 0 00.066.15.12.12 0 00.058.01h1.93a.224.224 0 00.206-.16l.386-1.48a.986.986 0 01.14-.291l4.926-6.531c.054-.073.025-.132-.066-.13l-.516.003-.006-.001zm-15.48 3.83a.2.2 0 01-.193.17h-2.47c-.086 0-.13-.059-.117-.131l.002-.013.011-.042c.242-.628.717-1.04 1.62-1.04 1.017 0 1.215.498 1.146 1.056h.001zm-.725-2.851c-3.17 0-3.922 1.925-4.343 3.867-.422 1.98-.385 3.832 2.895 3.832h.52l.401-.002 2.088-.012a.212.212 0 00.196-.162l.317-1.55c.019-.089-.04-.161-.131-.161h-2.95c-1.173 0-1.522-.312-1.393-1.228h4.715a.189.189 0 00.186-.163c.7-2.64.5-4.42-2.5-4.42v-.001zM13.555 36.3l-.044.158-.356 1.263-.356 1.261a.232.232 0 01-.21.159h-1.885c-1.43 0-1.777-1.118-1.43-2.768.348-1.686 1.031-2.735 2.438-2.841 1.923-.145 2.307 1.207 1.844 2.768zm1.293 2.744s.888-2.157 1.09-3.404c.276-1.668-.56-4.087-3.785-4.087-3.208 0-4.601 2.31-5.132 4.826-.531 2.529.165 4.747 3.354 4.73l4.867-.019a.226.226 0 00.206-.16l.41-1.563a.122.122 0 00-.018-.113.12.12 0 00-.105-.047l-.785-.005c-.077 0-.12-.05-.112-.115a.181.181 0 01.01-.037v-.006z" fill="#131B28"/><path d="M30.726 37.6a.108.108 0 11-.216 0 .108.108 0 01.216 0z" fill="#131B28"/></svg>