<svg width="36" height="49" fill="none" xmlns="http://www.w3.org/2000/svg"><path d="M35.031 9.934L31.928 44.64l-13.95 3.86-13.911-3.855-3.1-34.711H35.03z" fill="#264DE4"/><path d="M29.27 42.43l2.652-29.659H17.998V45.55l11.272-3.12z" fill="#2965F1"/><path d="M8.074 25.645l.382 4.258H18v-4.258H8.074zm9.924-8.615H7.305l.387 4.257h10.306v-4.258zM18 41.131v-4.43l-.02.006-4.749-1.28-.304-3.396H8.646l.598 6.685 8.736 2.42.02-.005z" fill="#EBEBEB"/><path d="M8.984.5h5.165v2.156h-3.005v2.156h3.005V6.97H8.984V.5zm6.198 0h5.165v1.875h-3.005v.375h3.005v4.313h-5.165v-1.97h3.005V4.72h-3.005V.5zm6.197 0h5.165v1.875h-3.005v.375h3.005v4.313h-5.165v-1.97h3.005V4.72h-3.005V.5z" fill="#000"/><path d="M23.236 29.903l-.495 5.522-4.757 1.281v4.43l8.743-2.42.064-.719 1.002-11.208.104-1.143.77-8.617H17.984v4.258h6.01l-.389 4.359h-5.62v4.257h5.25z" fill="#fff"/></svg>